<svg xmlns="http://www.w3.org/2000/svg" xmlns:xlink="http://www.w3.org/1999/xlink" width="411" zoomAndPan="magnify" viewBox="0 0 308.25 191.249993" height="255" preserveAspectRatio="xMidYMid meet" version="1.0"><defs><g/><clipPath id="9bff89b6f7"><path d="M 135 64 L 158 64 L 158 86 L 135 86 Z M 135 64 " clip-rule="nonzero"/></clipPath><clipPath id="5a1ae80ac0"><path d="M 142.742188 64.726562 L 157.117188 74.757812 L 149.964844 85.011719 L 135.585938 74.976562 Z M 142.742188 64.726562 " clip-rule="nonzero"/></clipPath><clipPath id="d8d71596d9"><path d="M 142.742188 64.726562 L 157.113281 74.753906 L 149.957031 85.007812 L 135.585938 74.976562 Z M 142.742188 64.726562 " clip-rule="nonzero"/></clipPath><clipPath id="986bebce67"><path d="M 115 41 L 181 41 L 181 128 L 115 128 Z M 115 41 " clip-rule="nonzero"/></clipPath><clipPath id="a0a4637863"><path d="M 170.449219 41.207031 L 180.28125 48.066406 L 124.992188 127.289062 L 115.160156 120.429688 Z M 170.449219 41.207031 " clip-rule="nonzero"/></clipPath><clipPath id="9ae00c9128"><path d="M 170.449219 41.207031 L 180.28125 48.066406 L 125.015625 127.253906 L 115.1875 120.394531 Z M 170.449219 41.207031 " clip-rule="nonzero"/></clipPath></defs><g fill="#ffffff" fill-opacity="1"><g transform="translate(134.344138, 123.281485)"><g><path d="M 64.59375 -0.953125 C 64.757812 -0.953125 64.84375 -0.789062 64.84375 -0.46875 C 64.84375 -0.15625 64.757812 0 64.59375 0 C 62.9375 0 61.628906 -0.0234375 60.671875 -0.078125 L 55.3125 -0.15625 L 50.34375 -0.078125 C 49.550781 -0.0234375 48.429688 0 46.984375 0 C 46.878906 0 46.828125 -0.15625 46.828125 -0.46875 C 46.828125 -0.789062 46.878906 -0.953125 46.984375 -0.953125 C 48.859375 -0.953125 50.234375 -1.097656 51.109375 -1.390625 C 51.992188 -1.691406 52.582031 -2.210938 52.875 -2.953125 C 53.164062 -3.703125 53.257812 -4.878906 53.15625 -6.484375 L 51.796875 -43.703125 L 33.0625 -0.5625 C 32.957031 -0.34375 32.742188 -0.234375 32.421875 -0.234375 C 32.148438 -0.234375 31.910156 -0.34375 31.703125 -0.5625 L 12.171875 -43.390625 L 12.09375 -43.546875 L 11.453125 -8.328125 C 11.390625 -5.546875 11.835938 -3.617188 12.796875 -2.546875 C 13.765625 -1.484375 15.554688 -0.953125 18.171875 -0.953125 C 18.273438 -0.953125 18.328125 -0.789062 18.328125 -0.46875 C 18.328125 -0.15625 18.273438 0 18.171875 0 C 16.671875 0 15.523438 -0.0234375 14.734375 -0.078125 L 10.40625 -0.15625 L 6.484375 -0.078125 C 5.785156 -0.0234375 4.742188 0 3.359375 0 C 3.253906 0 3.203125 -0.15625 3.203125 -0.46875 C 3.203125 -0.789062 3.253906 -0.953125 3.359375 -0.953125 C 5.597656 -0.953125 7.1875 -1.5 8.125 -2.59375 C 9.0625 -3.695312 9.554688 -5.609375 9.609375 -8.328125 L 10.40625 -46.265625 C 8.75 -48.128906 6.585938 -49.0625 3.921875 -49.0625 C 3.816406 -49.0625 3.765625 -49.222656 3.765625 -49.546875 C 3.765625 -49.867188 3.816406 -50.03125 3.921875 -50.03125 L 6.640625 -49.953125 C 7.171875 -49.898438 7.863281 -49.875 8.71875 -49.875 C 9.570312 -49.875 10.289062 -49.898438 10.875 -49.953125 C 11.46875 -50.003906 11.925781 -50.03125 12.25 -50.03125 C 13 -50.03125 13.585938 -49.773438 14.015625 -49.265625 C 14.441406 -48.765625 15.078125 -47.628906 15.921875 -45.859375 L 33.9375 -6.96875 L 51.875 -48.03125 C 52.132812 -48.613281 52.488281 -49.09375 52.9375 -49.46875 C 53.394531 -49.84375 53.835938 -50.03125 54.265625 -50.03125 C 54.484375 -50.03125 54.832031 -50.003906 55.3125 -49.953125 C 55.789062 -49.898438 56.457031 -49.875 57.3125 -49.875 L 60.921875 -49.953125 C 61.453125 -50.003906 62.273438 -50.03125 63.390625 -50.03125 C 63.503906 -50.03125 63.5625 -49.867188 63.5625 -49.546875 C 63.5625 -49.222656 63.503906 -49.0625 63.390625 -49.0625 C 60.617188 -49.0625 58.660156 -48.703125 57.515625 -47.984375 C 56.367188 -47.265625 55.820312 -45.835938 55.875 -43.703125 L 57.390625 -6.484375 C 57.441406 -4.828125 57.640625 -3.625 57.984375 -2.875 C 58.335938 -2.132812 59.003906 -1.628906 59.984375 -1.359375 C 60.972656 -1.085938 62.507812 -0.953125 64.59375 -0.953125 Z M 64.59375 -0.953125 "/></g></g></g><g fill="#ffffff" fill-opacity="1"><g transform="translate(30.101452, 161.493144)"><g><path d="M 13.890625 0 L 12.078125 0 L 12.0625 -8.734375 L 8.375 -1.21875 L 7.078125 -1.21875 L 3.390625 -8.734375 L 3.390625 0 L 1.53125 0 L 1.53125 -11.6875 L 3.875 -11.6875 L 7.734375 -3.921875 L 11.578125 -11.6875 L 13.890625 -11.6875 Z M 13.890625 0 "/></g></g></g><g fill="#ffffff" fill-opacity="1"><g transform="translate(52.23766, 161.493144)"><g><path d="M 9.09375 -2.640625 L 3.1875 -2.640625 L 2.078125 0 L 0.015625 0 L 5.171875 -11.6875 L 7.203125 -11.6875 L 12.3125 0 L 10.203125 0 Z M 8.328125 -4.390625 L 6.125 -9.59375 L 3.921875 -4.390625 Z M 8.328125 -4.390625 "/></g></g></g><g fill="#ffffff" fill-opacity="1"><g transform="translate(71.249863, 161.493144)"><g><path d="M 11.671875 0 L 9.734375 0 L 3.5 -8.390625 L 3.5 0 L 1.53125 0 L 1.53125 -11.6875 L 3.46875 -11.6875 L 9.734375 -3.296875 L 9.734375 -11.6875 L 11.671875 -11.6875 Z M 11.671875 0 "/></g></g></g><g fill="#ffffff" fill-opacity="1"><g transform="translate(91.16418, 161.493144)"><g><path d="M 6.71875 -11.75 C 7.539062 -11.75 8.34375 -11.585938 9.125 -11.265625 C 9.914062 -10.953125 10.59375 -10.507812 11.15625 -9.9375 L 10 -8.5 C 9.582031 -8.957031 9.082031 -9.316406 8.5 -9.578125 C 7.925781 -9.847656 7.34375 -9.984375 6.75 -9.984375 C 5.582031 -9.984375 4.59375 -9.582031 3.78125 -8.78125 C 2.976562 -7.988281 2.578125 -7.019531 2.578125 -5.875 C 2.578125 -4.71875 2.976562 -3.738281 3.78125 -2.9375 C 4.59375 -2.144531 5.582031 -1.75 6.75 -1.75 C 7.957031 -1.75 9.039062 -2.210938 10 -3.140625 L 11.171875 -1.84375 C 10.566406 -1.25 9.863281 -0.78125 9.0625 -0.4375 C 8.257812 -0.09375 7.453125 0.078125 6.640625 0.078125 C 4.929688 0.078125 3.488281 -0.488281 2.3125 -1.625 C 1.144531 -2.769531 0.5625 -4.179688 0.5625 -5.859375 C 0.5625 -7.523438 1.15625 -8.921875 2.34375 -10.046875 C 3.53125 -11.179688 4.988281 -11.75 6.71875 -11.75 Z M 6.71875 -11.75 "/></g></g></g><g fill="#ffffff" fill-opacity="1"><g transform="translate(109.491447, 161.493144)"><g><path d="M 3.5 0 L 1.53125 0 L 1.53125 -11.6875 L 3.5 -11.6875 Z M 3.5 0 "/></g></g></g><g fill="#ffffff" fill-opacity="1"><g transform="translate(121.219872, 161.493144)"><g><path d="M 11.671875 0 L 9.734375 0 L 3.5 -8.390625 L 3.5 0 L 1.53125 0 L 1.53125 -11.6875 L 3.46875 -11.6875 L 9.734375 -3.296875 L 9.734375 -11.6875 L 11.671875 -11.6875 Z M 11.671875 0 "/></g></g></g><g fill="#ffffff" fill-opacity="1"><g transform="translate(141.134187, 161.493144)"><g><path d="M 3.5 0 L 1.53125 0 L 1.53125 -11.6875 L 3.5 -11.6875 Z M 3.5 0 "/></g></g></g><g fill="#ffffff" fill-opacity="1"><g transform="translate(152.862605, 161.493144)"><g/></g></g><g fill="#ffffff" fill-opacity="1"><g transform="translate(163.855972, 161.493144)"><g><path d="M 9.53125 -5.75 L 11.265625 -5.75 L 11.265625 -1.4375 C 10.660156 -0.976562 9.945312 -0.609375 9.125 -0.328125 C 8.3125 -0.0546875 7.507812 0.078125 6.71875 0.078125 C 4.988281 0.078125 3.53125 -0.488281 2.34375 -1.625 C 1.15625 -2.769531 0.5625 -4.175781 0.5625 -5.84375 C 0.5625 -7.519531 1.160156 -8.921875 2.359375 -10.046875 C 3.566406 -11.179688 5.054688 -11.75 6.828125 -11.75 C 7.648438 -11.75 8.457031 -11.597656 9.25 -11.296875 C 10.050781 -11.003906 10.742188 -10.609375 11.328125 -10.109375 L 10.203125 -8.65625 C 9.242188 -9.539062 8.117188 -9.984375 6.828125 -9.984375 C 5.640625 -9.984375 4.632812 -9.582031 3.8125 -8.78125 C 2.988281 -7.976562 2.578125 -7 2.578125 -5.84375 C 2.578125 -4.675781 2.988281 -3.691406 3.8125 -2.890625 C 4.644531 -2.085938 5.65625 -1.6875 6.84375 -1.6875 C 7.75 -1.6875 8.644531 -1.953125 9.53125 -2.484375 Z M 9.53125 -5.75 "/></g></g></g><g fill="#ffffff" fill-opacity="1"><g transform="translate(183.051931, 161.493144)"><g><path d="M 3.5 0 L 1.53125 0 L 1.53125 -11.6875 L 3.5 -11.6875 Z M 3.5 0 "/></g></g></g><g fill="#ffffff" fill-opacity="1"><g transform="translate(194.780349, 161.493144)"><g><path d="M 2.34375 -10.046875 C 3.539062 -11.179688 5.015625 -11.75 6.765625 -11.75 C 8.515625 -11.75 9.984375 -11.179688 11.171875 -10.046875 C 12.367188 -8.921875 12.96875 -7.519531 12.96875 -5.84375 C 12.96875 -4.175781 12.367188 -2.769531 11.171875 -1.625 C 9.984375 -0.488281 8.515625 0.078125 6.765625 0.078125 C 5.015625 0.078125 3.539062 -0.488281 2.34375 -1.625 C 1.15625 -2.769531 0.5625 -4.175781 0.5625 -5.84375 C 0.5625 -7.519531 1.15625 -8.921875 2.34375 -10.046875 Z M 6.78125 -9.96875 C 5.625 -9.96875 4.632812 -9.566406 3.8125 -8.765625 C 2.988281 -7.972656 2.578125 -7 2.578125 -5.84375 C 2.578125 -4.6875 2.988281 -3.703125 3.8125 -2.890625 C 4.644531 -2.085938 5.632812 -1.6875 6.78125 -1.6875 C 7.925781 -1.6875 8.90625 -2.085938 9.71875 -2.890625 C 10.53125 -3.703125 10.9375 -4.6875 10.9375 -5.84375 C 10.9375 -7 10.53125 -7.972656 9.71875 -8.765625 C 8.90625 -9.566406 7.925781 -9.96875 6.78125 -9.96875 Z M 6.78125 -9.96875 "/></g></g></g><g fill="#ffffff" fill-opacity="1"><g transform="translate(214.995373, 161.493144)"><g><path d="M 8.953125 0 L 6.8125 -3.546875 C 6.695312 -3.535156 6.519531 -3.53125 6.28125 -3.53125 L 3.5 -3.53125 L 3.5 0 L 1.53125 0 L 1.53125 -11.6875 L 6.28125 -11.6875 C 7.769531 -11.6875 8.925781 -11.335938 9.75 -10.640625 C 10.570312 -9.953125 10.984375 -8.972656 10.984375 -7.703125 C 10.984375 -6.765625 10.773438 -5.972656 10.359375 -5.328125 C 9.941406 -4.679688 9.34375 -4.207031 8.5625 -3.90625 L 11.1875 0 Z M 3.5 -5.296875 L 6.28125 -5.296875 C 8.175781 -5.296875 9.125 -6.082031 9.125 -7.65625 C 9.125 -9.164062 8.175781 -9.921875 6.28125 -9.921875 L 3.5 -9.921875 Z M 3.5 -5.296875 "/></g></g></g><g fill="#ffffff" fill-opacity="1"><g transform="translate(233.757001, 161.493144)"><g><path d="M 9.53125 -5.75 L 11.265625 -5.75 L 11.265625 -1.4375 C 10.660156 -0.976562 9.945312 -0.609375 9.125 -0.328125 C 8.3125 -0.0546875 7.507812 0.078125 6.71875 0.078125 C 4.988281 0.078125 3.53125 -0.488281 2.34375 -1.625 C 1.15625 -2.769531 0.5625 -4.175781 0.5625 -5.84375 C 0.5625 -7.519531 1.160156 -8.921875 2.359375 -10.046875 C 3.566406 -11.179688 5.054688 -11.75 6.828125 -11.75 C 7.648438 -11.75 8.457031 -11.597656 9.25 -11.296875 C 10.050781 -11.003906 10.742188 -10.609375 11.328125 -10.109375 L 10.203125 -8.65625 C 9.242188 -9.539062 8.117188 -9.984375 6.828125 -9.984375 C 5.640625 -9.984375 4.632812 -9.582031 3.8125 -8.78125 C 2.988281 -7.976562 2.578125 -7 2.578125 -5.84375 C 2.578125 -4.675781 2.988281 -3.691406 3.8125 -2.890625 C 4.644531 -2.085938 5.65625 -1.6875 6.84375 -1.6875 C 7.75 -1.6875 8.644531 -1.953125 9.53125 -2.484375 Z M 9.53125 -5.75 "/></g></g></g><g fill="#ffffff" fill-opacity="1"><g transform="translate(252.952973, 161.493144)"><g><path d="M 3.5 0 L 1.53125 0 L 1.53125 -11.6875 L 3.5 -11.6875 Z M 3.5 0 "/></g></g></g><g fill="#ffffff" fill-opacity="1"><g transform="translate(264.681391, 161.493144)"><g><path d="M 9.09375 -2.640625 L 3.1875 -2.640625 L 2.078125 0 L 0.015625 0 L 5.171875 -11.6875 L 7.203125 -11.6875 L 12.3125 0 L 10.203125 0 Z M 8.328125 -4.390625 L 6.125 -9.59375 L 3.921875 -4.390625 Z M 8.328125 -4.390625 "/></g></g></g><g clip-path="url(#9bff89b6f7)"><g clip-path="url(#5a1ae80ac0)"><g clip-path="url(#d8d71596d9)"><path fill="#000000" d="M 142.742188 64.726562 L 157.117188 74.757812 L 149.964844 85.011719 L 135.585938 74.976562 Z M 142.742188 64.726562 " fill-opacity="1" fill-rule="nonzero"/></g></g></g><g fill="#ffffff" fill-opacity="1"><g transform="translate(96.291549, 89.951867)"><g><path d="M 32.421875 0.953125 C 26.597656 0.953125 21.539062 -0.226562 17.25 -2.59375 C 12.957031 -4.96875 9.660156 -8.171875 7.359375 -12.203125 C 5.066406 -16.234375 3.921875 -20.648438 3.921875 -25.453125 C 3.921875 -30.628906 5.210938 -35.140625 7.796875 -38.984375 C 10.390625 -42.828125 13.941406 -45.773438 18.453125 -47.828125 C 22.960938 -49.878906 28.019531 -50.90625 33.625 -50.90625 C 36.550781 -50.90625 39.242188 -50.613281 41.703125 -50.03125 C 44.160156 -49.445312 46.242188 -48.617188 47.953125 -47.546875 C 48.328125 -47.273438 48.539062 -47.070312 48.59375 -46.9375 C 48.644531 -46.8125 48.695312 -46.425781 48.75 -45.78125 L 49.703125 -36.828125 C 49.703125 -36.660156 49.554688 -36.550781 49.265625 -36.5 C 48.972656 -36.445312 48.800781 -36.5 48.75 -36.65625 C 47.570312 -41.09375 45.71875 -44.375 43.1875 -46.5 C 40.65625 -48.632812 37.09375 -49.703125 32.5 -49.703125 C 28.070312 -49.703125 24.09375 -48.753906 20.5625 -46.859375 C 17.039062 -44.972656 14.265625 -42.28125 12.234375 -38.78125 C 10.210938 -35.289062 9.203125 -31.195312 9.203125 -26.5 C 9.203125 -22.070312 10.125 -17.851562 11.96875 -13.84375 C 13.8125 -9.84375 16.640625 -6.5625 20.453125 -4 C 24.265625 -1.4375 28.972656 -0.15625 34.578125 -0.15625 C 38.523438 -0.15625 41.3125 -0.914062 42.9375 -2.4375 C 44.570312 -3.957031 45.390625 -6.476562 45.390625 -10 C 45.390625 -12.78125 45.203125 -14.71875 44.828125 -15.8125 C 44.453125 -16.90625 43.648438 -17.640625 42.421875 -18.015625 C 41.191406 -18.390625 39.054688 -18.578125 36.015625 -18.578125 C 35.703125 -18.578125 35.546875 -18.789062 35.546875 -19.21875 C 35.546875 -19.375 35.582031 -19.519531 35.65625 -19.65625 C 35.738281 -19.789062 35.832031 -19.859375 35.9375 -19.859375 C 40.050781 -19.585938 43.359375 -19.453125 45.859375 -19.453125 C 48.265625 -19.453125 50.828125 -19.53125 53.546875 -19.6875 C 53.660156 -19.6875 53.753906 -19.617188 53.828125 -19.484375 C 53.910156 -19.359375 53.953125 -19.238281 53.953125 -19.125 C 53.953125 -18.757812 53.816406 -18.578125 53.546875 -18.578125 C 52.160156 -18.628906 51.171875 -18.453125 50.578125 -18.046875 C 49.992188 -17.648438 49.625 -16.835938 49.46875 -15.609375 C 49.3125 -14.378906 49.234375 -12.242188 49.234375 -9.203125 C 49.234375 -6.804688 49.328125 -5.097656 49.515625 -4.078125 C 49.703125 -3.066406 49.796875 -2.425781 49.796875 -2.15625 C 49.796875 -1.84375 49.738281 -1.628906 49.625 -1.515625 C 49.519531 -1.410156 49.28125 -1.304688 48.90625 -1.203125 C 42.445312 0.234375 36.953125 0.953125 32.421875 0.953125 Z M 32.421875 0.953125 "/></g></g></g><g clip-path="url(#986bebce67)"><g clip-path="url(#a0a4637863)"><g clip-path="url(#9ae00c9128)"><path fill="#000000" d="M 170.449219 41.207031 L 180.28125 48.066406 L 125.019531 127.25 L 115.1875 120.390625 Z M 170.449219 41.207031 " fill-opacity="1" fill-rule="nonzero"/></g></g></g><path stroke-linecap="butt" transform="matrix(0.429369, -0.611356, 0.611356, 0.429369, 122.028207, 119.527177)" fill="none" stroke-linejoin="miter" d="M 0.000285781 1.001537 L 116.88865 1.000257 " stroke="#ffffff" stroke-width="2" stroke-opacity="1" stroke-miterlimit="4"/><g fill="#ffffff" fill-opacity="1"><g transform="translate(69.53576, 183.272385)"><g><path d="M 6.875 -6.15625 L 1.921875 -4.328125 L 6.171875 -2.53125 L 6.03125 -1.796875 L 1 -3.96875 L 1.171875 -4.796875 L 7.0625 -7 Z M 6.875 -6.15625 "/></g></g></g><g fill="#ffffff" fill-opacity="1"><g transform="translate(80.497398, 183.272385)"><g><path d="M 11.625 -6.59375 L 7.90625 0 L 7.046875 0 L 5.9375 -5.390625 L 2.859375 0 L 2 0 L 0.71875 -6.59375 L 1.53125 -6.59375 L 2.59375 -1 L 5.78125 -6.59375 L 6.53125 -6.59375 L 7.625 -1 L 10.765625 -6.59375 Z M 11.625 -6.59375 "/></g></g></g><g fill="#ffffff" fill-opacity="1"><g transform="translate(95.266659, 183.272385)"><g><path d="M 1.421875 -3.046875 C 1.410156 -2.984375 1.40625 -2.894531 1.40625 -2.78125 C 1.40625 -2.113281 1.59375 -1.601562 1.96875 -1.25 C 2.351562 -0.90625 2.921875 -0.734375 3.671875 -0.734375 C 4.109375 -0.734375 4.515625 -0.804688 4.890625 -0.953125 C 5.273438 -1.097656 5.585938 -1.296875 5.828125 -1.546875 L 6.234375 -0.921875 C 5.921875 -0.609375 5.53125 -0.363281 5.0625 -0.1875 C 4.601562 -0.0195312 4.113281 0.0625 3.59375 0.0625 C 2.644531 0.0625 1.894531 -0.1875 1.34375 -0.6875 C 0.800781 -1.1875 0.53125 -1.875 0.53125 -2.75 C 0.53125 -3.476562 0.6875 -4.140625 1 -4.734375 C 1.3125 -5.328125 1.742188 -5.789062 2.296875 -6.125 C 2.859375 -6.46875 3.484375 -6.640625 4.171875 -6.640625 C 5.046875 -6.640625 5.742188 -6.390625 6.265625 -5.890625 C 6.785156 -5.398438 7.046875 -4.71875 7.046875 -3.84375 C 7.046875 -3.601562 7.015625 -3.335938 6.953125 -3.046875 Z M 4.140625 -5.890625 C 3.484375 -5.890625 2.921875 -5.691406 2.453125 -5.296875 C 1.984375 -4.910156 1.664062 -4.378906 1.5 -3.703125 L 6.203125 -3.703125 C 6.210938 -3.765625 6.21875 -3.847656 6.21875 -3.953125 C 6.21875 -4.566406 6.03125 -5.039062 5.65625 -5.375 C 5.28125 -5.71875 4.773438 -5.890625 4.140625 -5.890625 Z M 4.140625 -5.890625 "/></g></g></g><g fill="#ffffff" fill-opacity="1"><g transform="translate(106.591526, 183.272385)"><g><path d="M 5.09375 -6.640625 C 5.65625 -6.640625 6.15625 -6.523438 6.59375 -6.296875 C 7.03125 -6.078125 7.367188 -5.757812 7.609375 -5.34375 C 7.859375 -4.925781 7.984375 -4.429688 7.984375 -3.859375 C 7.984375 -3.117188 7.820312 -2.445312 7.5 -1.84375 C 7.175781 -1.25 6.726562 -0.78125 6.15625 -0.4375 C 5.59375 -0.101562 4.957031 0.0625 4.25 0.0625 C 3.613281 0.0625 3.078125 -0.0664062 2.640625 -0.328125 C 2.210938 -0.585938 1.910156 -0.957031 1.734375 -1.4375 L 1.4375 0 L 0.59375 0 L 2.4375 -9.296875 L 3.328125 -9.296875 L 2.59375 -5.59375 C 2.90625 -5.9375 3.269531 -6.195312 3.6875 -6.375 C 4.113281 -6.550781 4.582031 -6.640625 5.09375 -6.640625 Z M 4.234375 -0.734375 C 4.773438 -0.734375 5.257812 -0.863281 5.6875 -1.125 C 6.125 -1.382812 6.460938 -1.75 6.703125 -2.21875 C 6.953125 -2.6875 7.078125 -3.21875 7.078125 -3.8125 C 7.078125 -4.457031 6.882812 -4.957031 6.5 -5.3125 C 6.125 -5.675781 5.59375 -5.859375 4.90625 -5.859375 C 4.363281 -5.859375 3.878906 -5.726562 3.453125 -5.46875 C 3.023438 -5.207031 2.6875 -4.835938 2.4375 -4.359375 C 2.1875 -3.890625 2.0625 -3.359375 2.0625 -2.765625 C 2.0625 -2.117188 2.25 -1.617188 2.625 -1.265625 C 3.007812 -0.910156 3.546875 -0.734375 4.234375 -0.734375 Z M 4.234375 -0.734375 "/></g></g></g><g fill="#ffffff" fill-opacity="1"><g transform="translate(118.843255, 183.272385)"><g/></g></g><g fill="#ffffff" fill-opacity="1"><g transform="translate(125.884555, 183.272385)"><g><path d="M 8.453125 -9.296875 L 6.609375 0 L 5.75 0 L 5.96875 -1.046875 C 5.644531 -0.691406 5.265625 -0.414062 4.828125 -0.21875 C 4.398438 -0.03125 3.921875 0.0625 3.390625 0.0625 C 2.835938 0.0625 2.34375 -0.046875 1.90625 -0.265625 C 1.46875 -0.492188 1.128906 -0.816406 0.890625 -1.234375 C 0.648438 -1.660156 0.53125 -2.160156 0.53125 -2.734375 C 0.53125 -3.472656 0.6875 -4.140625 1 -4.734375 C 1.320312 -5.328125 1.769531 -5.789062 2.34375 -6.125 C 2.914062 -6.46875 3.550781 -6.640625 4.25 -6.640625 C 4.863281 -6.640625 5.382812 -6.515625 5.8125 -6.265625 C 6.25 -6.023438 6.5625 -5.675781 6.75 -5.21875 L 7.5625 -9.296875 Z M 3.578125 -0.734375 C 4.128906 -0.734375 4.617188 -0.863281 5.046875 -1.125 C 5.484375 -1.382812 5.820312 -1.75 6.0625 -2.21875 C 6.3125 -2.695312 6.4375 -3.226562 6.4375 -3.8125 C 6.4375 -4.457031 6.242188 -4.957031 5.859375 -5.3125 C 5.484375 -5.675781 4.953125 -5.859375 4.265625 -5.859375 C 3.722656 -5.859375 3.234375 -5.722656 2.796875 -5.453125 C 2.367188 -5.191406 2.03125 -4.820312 1.78125 -4.34375 C 1.539062 -3.875 1.421875 -3.347656 1.421875 -2.765625 C 1.421875 -2.117188 1.609375 -1.617188 1.984375 -1.265625 C 2.367188 -0.910156 2.898438 -0.734375 3.578125 -0.734375 Z M 3.578125 -0.734375 "/></g></g></g><g fill="#ffffff" fill-opacity="1"><g transform="translate(138.136286, 183.272385)"><g><path d="M 1.421875 -3.046875 C 1.410156 -2.984375 1.40625 -2.894531 1.40625 -2.78125 C 1.40625 -2.113281 1.59375 -1.601562 1.96875 -1.25 C 2.351562 -0.90625 2.921875 -0.734375 3.671875 -0.734375 C 4.109375 -0.734375 4.515625 -0.804688 4.890625 -0.953125 C 5.273438 -1.097656 5.585938 -1.296875 5.828125 -1.546875 L 6.234375 -0.921875 C 5.921875 -0.609375 5.53125 -0.363281 5.0625 -0.1875 C 4.601562 -0.0195312 4.113281 0.0625 3.59375 0.0625 C 2.644531 0.0625 1.894531 -0.1875 1.34375 -0.6875 C 0.800781 -1.1875 0.53125 -1.875 0.53125 -2.75 C 0.53125 -3.476562 0.6875 -4.140625 1 -4.734375 C 1.3125 -5.328125 1.742188 -5.789062 2.296875 -6.125 C 2.859375 -6.46875 3.484375 -6.640625 4.171875 -6.640625 C 5.046875 -6.640625 5.742188 -6.390625 6.265625 -5.890625 C 6.785156 -5.398438 7.046875 -4.71875 7.046875 -3.84375 C 7.046875 -3.601562 7.015625 -3.335938 6.953125 -3.046875 Z M 4.140625 -5.890625 C 3.484375 -5.890625 2.921875 -5.691406 2.453125 -5.296875 C 1.984375 -4.910156 1.664062 -4.378906 1.5 -3.703125 L 6.203125 -3.703125 C 6.210938 -3.765625 6.21875 -3.847656 6.21875 -3.953125 C 6.21875 -4.566406 6.03125 -5.039062 5.65625 -5.375 C 5.28125 -5.71875 4.773438 -5.890625 4.140625 -5.890625 Z M 4.140625 -5.890625 "/></g></g></g><g fill="#ffffff" fill-opacity="1"><g transform="translate(149.461157, 183.272385)"><g><path d="M 7.4375 -6.59375 L 3.203125 0 L 2.296875 0 L 0.671875 -6.59375 L 1.546875 -6.59375 L 2.921875 -0.96875 L 6.515625 -6.59375 Z M 7.4375 -6.59375 "/></g></g></g><g fill="#ffffff" fill-opacity="1"><g transform="translate(160.009478, 183.272385)"><g><path d="M 1.421875 -3.046875 C 1.410156 -2.984375 1.40625 -2.894531 1.40625 -2.78125 C 1.40625 -2.113281 1.59375 -1.601562 1.96875 -1.25 C 2.351562 -0.90625 2.921875 -0.734375 3.671875 -0.734375 C 4.109375 -0.734375 4.515625 -0.804688 4.890625 -0.953125 C 5.273438 -1.097656 5.585938 -1.296875 5.828125 -1.546875 L 6.234375 -0.921875 C 5.921875 -0.609375 5.53125 -0.363281 5.0625 -0.1875 C 4.601562 -0.0195312 4.113281 0.0625 3.59375 0.0625 C 2.644531 0.0625 1.894531 -0.1875 1.34375 -0.6875 C 0.800781 -1.1875 0.53125 -1.875 0.53125 -2.75 C 0.53125 -3.476562 0.6875 -4.140625 1 -4.734375 C 1.3125 -5.328125 1.742188 -5.789062 2.296875 -6.125 C 2.859375 -6.46875 3.484375 -6.640625 4.171875 -6.640625 C 5.046875 -6.640625 5.742188 -6.390625 6.265625 -5.890625 C 6.785156 -5.398438 7.046875 -4.71875 7.046875 -3.84375 C 7.046875 -3.601562 7.015625 -3.335938 6.953125 -3.046875 Z M 4.140625 -5.890625 C 3.484375 -5.890625 2.921875 -5.691406 2.453125 -5.296875 C 1.984375 -4.910156 1.664062 -4.378906 1.5 -3.703125 L 6.203125 -3.703125 C 6.210938 -3.765625 6.21875 -3.847656 6.21875 -3.953125 C 6.21875 -4.566406 6.03125 -5.039062 5.65625 -5.375 C 5.28125 -5.71875 4.773438 -5.890625 4.140625 -5.890625 Z M 4.140625 -5.890625 "/></g></g></g><g fill="#ffffff" fill-opacity="1"><g transform="translate(171.334348, 183.272385)"><g><path d="M 2.4375 -9.296875 L 3.328125 -9.296875 L 1.484375 0 L 0.59375 0 Z M 2.4375 -9.296875 "/></g></g></g><g fill="#ffffff" fill-opacity="1"><g transform="translate(178.463321, 183.272385)"><g><path d="M 3.515625 0.0625 C 2.921875 0.0625 2.394531 -0.0507812 1.9375 -0.28125 C 1.488281 -0.507812 1.140625 -0.832031 0.890625 -1.25 C 0.648438 -1.675781 0.53125 -2.171875 0.53125 -2.734375 C 0.53125 -3.472656 0.691406 -4.140625 1.015625 -4.734375 C 1.335938 -5.328125 1.789062 -5.789062 2.375 -6.125 C 2.957031 -6.46875 3.609375 -6.640625 4.328125 -6.640625 C 5.253906 -6.640625 5.984375 -6.390625 6.515625 -5.890625 C 7.054688 -5.390625 7.328125 -4.710938 7.328125 -3.859375 C 7.328125 -3.117188 7.164062 -2.445312 6.84375 -1.84375 C 6.519531 -1.25 6.066406 -0.78125 5.484375 -0.4375 C 4.898438 -0.101562 4.242188 0.0625 3.515625 0.0625 Z M 3.578125 -0.734375 C 4.128906 -0.734375 4.617188 -0.863281 5.046875 -1.125 C 5.484375 -1.382812 5.820312 -1.75 6.0625 -2.21875 C 6.3125 -2.695312 6.4375 -3.226562 6.4375 -3.8125 C 6.4375 -4.457031 6.242188 -4.957031 5.859375 -5.3125 C 5.484375 -5.675781 4.953125 -5.859375 4.265625 -5.859375 C 3.722656 -5.859375 3.234375 -5.722656 2.796875 -5.453125 C 2.367188 -5.191406 2.03125 -4.820312 1.78125 -4.34375 C 1.539062 -3.875 1.421875 -3.347656 1.421875 -2.765625 C 1.421875 -2.117188 1.609375 -1.617188 1.984375 -1.265625 C 2.367188 -0.910156 2.898438 -0.734375 3.578125 -0.734375 Z M 3.578125 -0.734375 "/></g></g></g><g fill="#ffffff" fill-opacity="1"><g transform="translate(190.076265, 183.272385)"><g><path d="M 5.09375 -6.640625 C 5.65625 -6.640625 6.15625 -6.523438 6.59375 -6.296875 C 7.03125 -6.078125 7.367188 -5.757812 7.609375 -5.34375 C 7.859375 -4.925781 7.984375 -4.429688 7.984375 -3.859375 C 7.984375 -3.117188 7.820312 -2.445312 7.5 -1.84375 C 7.175781 -1.25 6.726562 -0.78125 6.15625 -0.4375 C 5.59375 -0.101562 4.957031 0.0625 4.25 0.0625 C 3.625 0.0625 3.097656 -0.0546875 2.671875 -0.296875 C 2.242188 -0.546875 1.929688 -0.90625 1.734375 -1.375 L 0.984375 2.4375 L 0.09375 2.4375 L 1.890625 -6.59375 L 2.75 -6.59375 L 2.53125 -5.53125 C 2.84375 -5.894531 3.21875 -6.171875 3.65625 -6.359375 C 4.09375 -6.546875 4.570312 -6.640625 5.09375 -6.640625 Z M 4.234375 -0.734375 C 4.773438 -0.734375 5.257812 -0.863281 5.6875 -1.125 C 6.125 -1.382812 6.460938 -1.75 6.703125 -2.21875 C 6.953125 -2.6875 7.078125 -3.21875 7.078125 -3.8125 C 7.078125 -4.457031 6.882812 -4.957031 6.5 -5.3125 C 6.125 -5.675781 5.59375 -5.859375 4.90625 -5.859375 C 4.363281 -5.859375 3.878906 -5.726562 3.453125 -5.46875 C 3.023438 -5.207031 2.6875 -4.835938 2.4375 -4.359375 C 2.1875 -3.890625 2.0625 -3.359375 2.0625 -2.765625 C 2.0625 -2.117188 2.25 -1.617188 2.625 -1.265625 C 3.007812 -0.910156 3.546875 -0.734375 4.234375 -0.734375 Z M 4.234375 -0.734375 "/></g></g></g><g fill="#ffffff" fill-opacity="1"><g transform="translate(202.327997, 183.272385)"><g><path d="M 1.421875 -3.046875 C 1.410156 -2.984375 1.40625 -2.894531 1.40625 -2.78125 C 1.40625 -2.113281 1.59375 -1.601562 1.96875 -1.25 C 2.351562 -0.90625 2.921875 -0.734375 3.671875 -0.734375 C 4.109375 -0.734375 4.515625 -0.804688 4.890625 -0.953125 C 5.273438 -1.097656 5.585938 -1.296875 5.828125 -1.546875 L 6.234375 -0.921875 C 5.921875 -0.609375 5.53125 -0.363281 5.0625 -0.1875 C 4.601562 -0.0195312 4.113281 0.0625 3.59375 0.0625 C 2.644531 0.0625 1.894531 -0.1875 1.34375 -0.6875 C 0.800781 -1.1875 0.53125 -1.875 0.53125 -2.75 C 0.53125 -3.476562 0.6875 -4.140625 1 -4.734375 C 1.3125 -5.328125 1.742188 -5.789062 2.296875 -6.125 C 2.859375 -6.46875 3.484375 -6.640625 4.171875 -6.640625 C 5.046875 -6.640625 5.742188 -6.390625 6.265625 -5.890625 C 6.785156 -5.398438 7.046875 -4.71875 7.046875 -3.84375 C 7.046875 -3.601562 7.015625 -3.335938 6.953125 -3.046875 Z M 4.140625 -5.890625 C 3.484375 -5.890625 2.921875 -5.691406 2.453125 -5.296875 C 1.984375 -4.910156 1.664062 -4.378906 1.5 -3.703125 L 6.203125 -3.703125 C 6.210938 -3.765625 6.21875 -3.847656 6.21875 -3.953125 C 6.21875 -4.566406 6.03125 -5.039062 5.65625 -5.375 C 5.28125 -5.71875 4.773438 -5.890625 4.140625 -5.890625 Z M 4.140625 -5.890625 "/></g></g></g><g fill="#ffffff" fill-opacity="1"><g transform="translate(213.652867, 183.272385)"><g><path d="M 2.515625 -5.390625 C 2.804688 -5.816406 3.171875 -6.128906 3.609375 -6.328125 C 4.054688 -6.535156 4.59375 -6.640625 5.21875 -6.640625 L 5.0625 -5.78125 L 4.8125 -5.796875 C 4.101562 -5.796875 3.519531 -5.585938 3.0625 -5.171875 C 2.601562 -4.765625 2.296875 -4.15625 2.140625 -3.34375 L 1.484375 0 L 0.59375 0 L 1.890625 -6.59375 L 2.75 -6.59375 Z M 2.515625 -5.390625 "/></g></g></g><g fill="#ffffff" fill-opacity="1"><g transform="translate(222.435149, 183.272385)"><g><path d="M 5.21875 -10.546875 L 6.09375 -10.546875 L -0.375 1.25 L -1.234375 1.25 Z M 5.21875 -10.546875 "/></g></g></g><g fill="#ffffff" fill-opacity="1"><g transform="translate(230.390771, 183.272385)"><g><path d="M 6.625 -4.796875 L 6.46875 -3.96875 L 0.59375 -1.796875 L 0.765625 -2.625 L 5.71875 -4.421875 L 1.484375 -6.234375 L 1.625 -7 Z M 6.625 -4.796875 "/></g></g></g></svg>