<svg xmlns="http://www.w3.org/2000/svg" xmlns:xlink="http://www.w3.org/1999/xlink" width="500" zoomAndPan="magnify" viewBox="0 0 375 374.999991" height="500" preserveAspectRatio="xMidYMid meet" version="1.0"><defs><g/><clipPath id="0a26f06ef7"><path d="M 146 149 L 206 149 L 206 206 L 146 206 Z M 146 149 " clip-rule="nonzero"/></clipPath><clipPath id="8814c46502"><path d="M 165.476562 149.824219 L 205.871094 178.015625 L 186.878906 205.226562 L 146.484375 177.035156 Z M 165.476562 149.824219 " clip-rule="nonzero"/></clipPath><clipPath id="197cd6fdd4"><path d="M 165.476562 149.824219 L 205.851562 178 L 186.859375 205.214844 L 146.484375 177.035156 Z M 165.476562 149.824219 " clip-rule="nonzero"/></clipPath><clipPath id="40473aac98"><path d="M 90 85 L 270 85 L 270 319 L 90 319 Z M 90 85 " clip-rule="nonzero"/></clipPath><clipPath id="5650a23b9a"><path d="M 236.914062 85.820312 L 269.742188 108.734375 L 122.96875 319.042969 L 90.140625 296.132812 Z M 236.914062 85.820312 " clip-rule="nonzero"/></clipPath><clipPath id="d8ec11d3ec"><path d="M 236.914062 85.820312 L 269.742188 108.734375 L 123.046875 318.929688 L 90.214844 296.019531 Z M 236.914062 85.820312 " clip-rule="nonzero"/></clipPath></defs><g fill="#ffffff" fill-opacity="1"><g transform="translate(145.192618, 301.580351)"><g><path d="M 171.46875 -2.546875 C 171.882812 -2.546875 172.09375 -2.117188 172.09375 -1.265625 C 172.09375 -0.421875 171.882812 0 171.46875 0 C 167.070312 0 163.597656 -0.0703125 161.046875 -0.21875 L 146.8125 -0.421875 L 133.640625 -0.21875 C 131.515625 -0.0703125 128.539062 0 124.71875 0 C 124.4375 0 124.296875 -0.421875 124.296875 -1.265625 C 124.296875 -2.117188 124.4375 -2.546875 124.71875 -2.546875 C 129.675781 -2.546875 133.320312 -2.9375 135.65625 -3.71875 C 138 -4.5 139.554688 -5.878906 140.328125 -7.859375 C 141.109375 -9.835938 141.359375 -12.953125 141.078125 -17.203125 L 137.46875 -116.015625 L 87.75 -1.484375 C 87.46875 -0.921875 86.898438 -0.640625 86.046875 -0.640625 C 85.335938 -0.640625 84.703125 -0.921875 84.140625 -1.484375 L 32.296875 -115.15625 L 32.078125 -115.578125 L 30.390625 -22.09375 C 30.242188 -14.726562 31.441406 -9.628906 33.984375 -6.796875 C 36.535156 -3.960938 41.285156 -2.546875 48.234375 -2.546875 C 48.515625 -2.546875 48.65625 -2.117188 48.65625 -1.265625 C 48.65625 -0.421875 48.515625 0 48.234375 0 C 44.265625 0 41.21875 -0.0703125 39.09375 -0.21875 L 27.625 -0.421875 L 17.203125 -0.21875 C 15.367188 -0.0703125 12.609375 0 8.921875 0 C 8.640625 0 8.5 -0.421875 8.5 -1.265625 C 8.5 -2.117188 8.640625 -2.546875 8.921875 -2.546875 C 14.867188 -2.546875 19.082031 -4 21.5625 -6.90625 C 24.039062 -9.8125 25.351562 -14.875 25.5 -22.09375 L 27.625 -122.8125 C 23.226562 -127.769531 17.488281 -130.25 10.40625 -130.25 C 10.125 -130.25 9.984375 -130.671875 9.984375 -131.515625 C 9.984375 -132.367188 10.125 -132.796875 10.40625 -132.796875 L 17.640625 -132.578125 C 19.054688 -132.441406 20.894531 -132.375 23.15625 -132.375 C 25.425781 -132.375 27.335938 -132.441406 28.890625 -132.578125 C 30.453125 -132.722656 31.65625 -132.796875 32.5 -132.796875 C 34.488281 -132.796875 36.046875 -132.117188 37.171875 -130.765625 C 38.304688 -129.421875 40.007812 -126.414062 42.28125 -121.75 L 90.09375 -18.484375 L 137.6875 -127.484375 C 138.382812 -129.035156 139.335938 -130.304688 140.546875 -131.296875 C 141.753906 -132.296875 142.921875 -132.796875 144.046875 -132.796875 C 144.617188 -132.796875 145.539062 -132.722656 146.8125 -132.578125 C 148.09375 -132.441406 149.863281 -132.375 152.125 -132.375 L 161.6875 -132.578125 C 163.101562 -132.722656 165.300781 -132.796875 168.28125 -132.796875 C 168.5625 -132.796875 168.703125 -132.367188 168.703125 -131.515625 C 168.703125 -130.671875 168.5625 -130.25 168.28125 -130.25 C 160.914062 -130.25 155.707031 -129.289062 152.65625 -127.375 C 149.613281 -125.457031 148.160156 -121.671875 148.296875 -116.015625 L 152.34375 -17.203125 C 152.476562 -12.816406 153.003906 -9.628906 153.921875 -7.640625 C 154.847656 -5.660156 156.617188 -4.316406 159.234375 -3.609375 C 161.859375 -2.898438 165.9375 -2.546875 171.46875 -2.546875 Z M 171.46875 -2.546875 "/></g></g></g><g clip-path="url(#0a26f06ef7)"><g clip-path="url(#8814c46502)"><g clip-path="url(#197cd6fdd4)"><path fill="#000000" d="M 165.476562 149.824219 L 205.871094 178.015625 L 186.878906 205.226562 L 146.484375 177.035156 Z M 165.476562 149.824219 " fill-opacity="1" fill-rule="nonzero"/></g></g></g><g fill="#ffffff" fill-opacity="1"><g transform="translate(41.021341, 218.843397)"><g><path d="M 86.046875 2.546875 C 70.609375 2.546875 57.1875 -0.601562 45.78125 -6.90625 C 34.382812 -13.207031 25.640625 -21.703125 19.546875 -32.390625 C 13.453125 -43.085938 10.40625 -54.8125 10.40625 -67.5625 C 10.40625 -81.300781 13.835938 -93.269531 20.703125 -103.46875 C 27.578125 -113.664062 37 -121.488281 48.96875 -126.9375 C 60.9375 -132.394531 74.359375 -135.125 89.234375 -135.125 C 97.023438 -135.125 104.175781 -134.34375 110.6875 -132.78125 C 117.207031 -131.226562 122.734375 -129.035156 127.265625 -126.203125 C 128.253906 -125.492188 128.820312 -124.960938 128.96875 -124.609375 C 129.113281 -124.253906 129.253906 -123.226562 129.390625 -121.53125 L 131.9375 -97.734375 C 131.9375 -97.304688 131.546875 -97.019531 130.765625 -96.875 C 129.992188 -96.738281 129.535156 -96.882812 129.390625 -97.3125 C 126.273438 -109.070312 121.351562 -117.78125 114.625 -123.4375 C 107.894531 -129.101562 98.441406 -131.9375 86.265625 -131.9375 C 74.503906 -131.9375 63.945312 -129.421875 54.59375 -124.390625 C 45.25 -119.367188 37.882812 -112.21875 32.5 -102.9375 C 27.125 -93.664062 24.4375 -82.796875 24.4375 -70.328125 C 24.4375 -58.566406 26.878906 -47.375 31.765625 -36.75 C 36.648438 -26.132812 44.15625 -17.425781 54.28125 -10.625 C 64.414062 -3.820312 76.914062 -0.421875 91.78125 -0.421875 C 102.269531 -0.421875 109.671875 -2.4375 113.984375 -6.46875 C 118.304688 -10.507812 120.46875 -17.207031 120.46875 -26.5625 C 120.46875 -33.925781 119.972656 -39.054688 118.984375 -41.953125 C 117.992188 -44.859375 115.867188 -46.804688 112.609375 -47.796875 C 109.347656 -48.796875 103.679688 -49.296875 95.609375 -49.296875 C 94.765625 -49.296875 94.34375 -49.863281 94.34375 -51 C 94.34375 -51.414062 94.445312 -51.800781 94.65625 -52.15625 C 94.863281 -52.507812 95.113281 -52.6875 95.40625 -52.6875 C 106.3125 -51.976562 115.09375 -51.625 121.75 -51.625 C 128.125 -51.625 134.921875 -51.835938 142.140625 -52.265625 C 142.421875 -52.265625 142.664062 -52.085938 142.875 -51.734375 C 143.09375 -51.378906 143.203125 -51.0625 143.203125 -50.78125 C 143.203125 -49.789062 142.847656 -49.296875 142.140625 -49.296875 C 138.460938 -49.429688 135.84375 -48.96875 134.28125 -47.90625 C 132.71875 -46.84375 131.722656 -44.679688 131.296875 -41.421875 C 130.878906 -38.171875 130.671875 -32.507812 130.671875 -24.4375 C 130.671875 -18.0625 130.914062 -13.523438 131.40625 -10.828125 C 131.90625 -8.140625 132.15625 -6.441406 132.15625 -5.734375 C 132.15625 -4.890625 132.015625 -4.320312 131.734375 -4.03125 C 131.453125 -3.75 130.8125 -3.46875 129.8125 -3.1875 C 112.675781 0.632812 98.085938 2.546875 86.046875 2.546875 Z M 86.046875 2.546875 "/></g></g></g><g clip-path="url(#40473aac98)"><g clip-path="url(#5650a23b9a)"><g clip-path="url(#d8ec11d3ec)"><path fill="#000000" d="M 236.914062 85.820312 L 269.742188 108.734375 L 123.058594 318.914062 L 90.226562 296.003906 Z M 236.914062 85.820312 " fill-opacity="1" fill-rule="nonzero"/></g></g></g><path stroke-linecap="butt" transform="matrix(0.442086, -0.605855, 0.605855, 0.442086, 105.750569, 296.331749)" fill="none" stroke-linejoin="miter" d="M 0.000106308 1.99771 L 313.087462 2.001857 " stroke="#ffffff" stroke-width="4" stroke-opacity="1" stroke-miterlimit="4"/></svg>