<svg xmlns="http://www.w3.org/2000/svg" xmlns:xlink="http://www.w3.org/1999/xlink" width="500" zoomAndPan="magnify" viewBox="0 0 375 374.999991" height="500" preserveAspectRatio="xMidYMid meet" version="1.0"><defs><g/><clipPath id="cf185d2106"><path d="M 167 127 L 196 127 L 196 154 L 167 154 Z M 167 127 " clip-rule="nonzero"/></clipPath><clipPath id="9e13656a8b"><path d="M 176.558594 127.777344 L 195.253906 140.828125 L 186.464844 153.421875 L 167.769531 140.375 Z M 176.558594 127.777344 " clip-rule="nonzero"/></clipPath><clipPath id="87e45a5014"><path d="M 176.558594 127.777344 L 195.246094 140.820312 L 186.453125 153.414062 L 167.769531 140.375 Z M 176.558594 127.777344 " clip-rule="nonzero"/></clipPath><clipPath id="4dc1512816"><path d="M 141 98 L 225 98 L 225 207 L 141 207 Z M 141 98 " clip-rule="nonzero"/></clipPath><clipPath id="42a97f9b3d"><path d="M 209.621094 98.152344 L 224.816406 108.757812 L 156.882812 206.097656 L 141.6875 195.492188 Z M 209.621094 98.152344 " clip-rule="nonzero"/></clipPath><clipPath id="4ed3308bde"><path d="M 209.621094 98.152344 L 224.816406 108.757812 L 156.917969 206.046875 L 141.726562 195.441406 Z M 209.621094 98.152344 " clip-rule="nonzero"/></clipPath></defs><g fill="#ffffff" fill-opacity="1"><g transform="translate(167.171865, 198.015702)"><g><path d="M 79.359375 -1.1875 C 79.554688 -1.1875 79.65625 -0.988281 79.65625 -0.59375 C 79.65625 -0.195312 79.554688 0 79.359375 0 C 77.328125 0 75.722656 -0.03125 74.546875 -0.09375 L 67.953125 -0.203125 L 61.859375 -0.09375 C 60.878906 -0.03125 59.503906 0 57.734375 0 C 57.597656 0 57.53125 -0.195312 57.53125 -0.59375 C 57.53125 -0.988281 57.597656 -1.1875 57.734375 -1.1875 C 60.023438 -1.1875 61.710938 -1.363281 62.796875 -1.71875 C 63.878906 -2.082031 64.597656 -2.722656 64.953125 -3.640625 C 65.316406 -4.554688 65.429688 -6 65.296875 -7.96875 L 63.625 -53.703125 L 40.609375 -0.6875 C 40.484375 -0.425781 40.222656 -0.296875 39.828125 -0.296875 C 39.503906 -0.296875 39.207031 -0.425781 38.9375 -0.6875 L 14.953125 -53.296875 L 14.84375 -53.5 L 14.0625 -10.234375 C 14 -6.816406 14.554688 -4.453125 15.734375 -3.140625 C 16.910156 -1.835938 19.109375 -1.1875 22.328125 -1.1875 C 22.453125 -1.1875 22.515625 -0.988281 22.515625 -0.59375 C 22.515625 -0.195312 22.453125 0 22.328125 0 C 20.492188 0 19.082031 -0.03125 18.09375 -0.09375 L 12.78125 -0.203125 L 7.96875 -0.09375 C 7.113281 -0.03125 5.832031 0 4.125 0 C 4 0 3.9375 -0.195312 3.9375 -0.59375 C 3.9375 -0.988281 4 -1.1875 4.125 -1.1875 C 6.882812 -1.1875 8.835938 -1.859375 9.984375 -3.203125 C 11.128906 -4.546875 11.734375 -6.890625 11.796875 -10.234375 L 12.78125 -56.84375 C 10.75 -59.132812 8.09375 -60.28125 4.8125 -60.28125 C 4.6875 -60.28125 4.625 -60.476562 4.625 -60.875 C 4.625 -61.269531 4.6875 -61.46875 4.8125 -61.46875 L 8.15625 -61.359375 C 8.8125 -61.296875 9.664062 -61.265625 10.71875 -61.265625 C 11.769531 -61.265625 12.65625 -61.296875 13.375 -61.359375 C 14.09375 -61.429688 14.648438 -61.46875 15.046875 -61.46875 C 15.960938 -61.46875 16.679688 -61.15625 17.203125 -60.53125 C 17.734375 -59.90625 18.523438 -58.507812 19.578125 -56.34375 L 41.703125 -8.5625 L 63.734375 -59 C 64.054688 -59.726562 64.492188 -60.320312 65.046875 -60.78125 C 65.609375 -61.238281 66.148438 -61.46875 66.671875 -61.46875 C 66.941406 -61.46875 67.367188 -61.429688 67.953125 -61.359375 C 68.546875 -61.296875 69.367188 -61.265625 70.421875 -61.265625 L 74.84375 -61.359375 C 75.5 -61.429688 76.515625 -61.46875 77.890625 -61.46875 C 78.015625 -61.46875 78.078125 -61.269531 78.078125 -60.875 C 78.078125 -60.476562 78.015625 -60.28125 77.890625 -60.28125 C 74.484375 -60.28125 72.070312 -59.835938 70.65625 -58.953125 C 69.25 -58.066406 68.578125 -56.316406 68.640625 -53.703125 L 70.515625 -7.96875 C 70.578125 -5.9375 70.820312 -4.457031 71.25 -3.53125 C 71.675781 -2.613281 72.492188 -1.992188 73.703125 -1.671875 C 74.921875 -1.347656 76.804688 -1.1875 79.359375 -1.1875 Z M 79.359375 -1.1875 "/></g></g></g><g fill="#ffffff" fill-opacity="1"><g transform="translate(39.034528, 247.02336)"><g><path d="M 17.078125 0 L 14.84375 0 L 14.828125 -10.734375 L 10.28125 -1.5 L 8.703125 -1.5 L 4.171875 -10.734375 L 4.171875 0 L 1.890625 0 L 1.890625 -14.375 L 4.765625 -14.375 L 9.5 -4.828125 L 14.234375 -14.375 L 17.078125 -14.375 Z M 17.078125 0 "/></g></g></g><g fill="#ffffff" fill-opacity="1"><g transform="translate(66.230552, 247.02336)"><g><path d="M 11.171875 -3.25 L 3.921875 -3.25 L 2.546875 0 L 0.015625 0 L 6.359375 -14.375 L 8.84375 -14.375 L 15.125 0 L 12.546875 0 Z M 10.25 -5.40625 L 7.53125 -11.78125 L 4.828125 -5.40625 Z M 10.25 -5.40625 "/></g></g></g><g fill="#ffffff" fill-opacity="1"><g transform="translate(89.588498, 247.02336)"><g><path d="M 14.34375 0 L 11.96875 0 L 4.3125 -10.3125 L 4.3125 0 L 1.890625 0 L 1.890625 -14.375 L 4.265625 -14.375 L 11.96875 -4.046875 L 11.96875 -14.375 L 14.34375 -14.375 Z M 14.34375 0 "/></g></g></g><g fill="#ffffff" fill-opacity="1"><g transform="translate(114.05476, 247.02336)"><g><path d="M 8.25 -14.4375 C 9.257812 -14.4375 10.25 -14.238281 11.21875 -13.84375 C 12.1875 -13.457031 13.019531 -12.914062 13.71875 -12.21875 L 12.296875 -10.453125 C 11.773438 -11.015625 11.15625 -11.457031 10.4375 -11.78125 C 9.726562 -12.113281 9.015625 -12.28125 8.296875 -12.28125 C 6.859375 -12.28125 5.640625 -11.789062 4.640625 -10.8125 C 3.648438 -9.832031 3.15625 -8.640625 3.15625 -7.234375 C 3.15625 -5.804688 3.648438 -4.601562 4.640625 -3.625 C 5.640625 -2.644531 6.859375 -2.15625 8.296875 -2.15625 C 9.785156 -2.15625 11.117188 -2.722656 12.296875 -3.859375 L 13.734375 -2.265625 C 12.992188 -1.535156 12.128906 -0.957031 11.140625 -0.53125 C 10.160156 -0.101562 9.171875 0.109375 8.171875 0.109375 C 6.066406 0.109375 4.296875 -0.59375 2.859375 -2 C 1.421875 -3.40625 0.703125 -5.140625 0.703125 -7.203125 C 0.703125 -9.242188 1.429688 -10.957031 2.890625 -12.34375 C 4.347656 -13.738281 6.132812 -14.4375 8.25 -14.4375 Z M 8.25 -14.4375 "/></g></g></g><g fill="#ffffff" fill-opacity="1"><g transform="translate(136.571209, 247.02336)"><g><path d="M 4.3125 0 L 1.890625 0 L 1.890625 -14.375 L 4.3125 -14.375 Z M 4.3125 0 "/></g></g></g><g fill="#ffffff" fill-opacity="1"><g transform="translate(150.980476, 247.02336)"><g><path d="M 14.34375 0 L 11.96875 0 L 4.3125 -10.3125 L 4.3125 0 L 1.890625 0 L 1.890625 -14.375 L 4.265625 -14.375 L 11.96875 -4.046875 L 11.96875 -14.375 L 14.34375 -14.375 Z M 14.34375 0 "/></g></g></g><g fill="#ffffff" fill-opacity="1"><g transform="translate(175.446735, 247.02336)"><g><path d="M 4.3125 0 L 1.890625 0 L 1.890625 -14.375 L 4.3125 -14.375 Z M 4.3125 0 "/></g></g></g><g fill="#ffffff" fill-opacity="1"><g transform="translate(189.855994, 247.02336)"><g/></g></g><g fill="#ffffff" fill-opacity="1"><g transform="translate(203.362185, 247.02336)"><g><path d="M 11.71875 -7.0625 L 13.84375 -7.0625 L 13.84375 -1.765625 C 13.101562 -1.203125 12.226562 -0.75 11.21875 -0.40625 C 10.21875 -0.0625 9.226562 0.109375 8.25 0.109375 C 6.132812 0.109375 4.347656 -0.59375 2.890625 -2 C 1.429688 -3.40625 0.703125 -5.132812 0.703125 -7.1875 C 0.703125 -9.238281 1.4375 -10.957031 2.90625 -12.34375 C 4.382812 -13.738281 6.210938 -14.4375 8.390625 -14.4375 C 9.410156 -14.4375 10.410156 -14.253906 11.390625 -13.890625 C 12.367188 -13.523438 13.210938 -13.035156 13.921875 -12.421875 L 12.546875 -10.640625 C 11.367188 -11.734375 9.984375 -12.28125 8.390625 -12.28125 C 6.929688 -12.28125 5.691406 -11.785156 4.671875 -10.796875 C 3.660156 -9.816406 3.15625 -8.613281 3.15625 -7.1875 C 3.15625 -5.75 3.664062 -4.535156 4.6875 -3.546875 C 5.707031 -2.566406 6.953125 -2.078125 8.421875 -2.078125 C 9.523438 -2.078125 10.625 -2.40625 11.71875 -3.0625 Z M 11.71875 -7.0625 "/></g></g></g><g fill="#ffffff" fill-opacity="1"><g transform="translate(226.945889, 247.02336)"><g><path d="M 4.3125 0 L 1.890625 0 L 1.890625 -14.375 L 4.3125 -14.375 Z M 4.3125 0 "/></g></g></g><g fill="#ffffff" fill-opacity="1"><g transform="translate(241.355148, 247.02336)"><g><path d="M 2.890625 -12.34375 C 4.359375 -13.738281 6.164062 -14.4375 8.3125 -14.4375 C 10.457031 -14.4375 12.265625 -13.738281 13.734375 -12.34375 C 15.203125 -10.957031 15.9375 -9.238281 15.9375 -7.1875 C 15.9375 -5.132812 15.203125 -3.40625 13.734375 -2 C 12.265625 -0.59375 10.457031 0.109375 8.3125 0.109375 C 6.164062 0.109375 4.359375 -0.59375 2.890625 -2 C 1.429688 -3.40625 0.703125 -5.132812 0.703125 -7.1875 C 0.703125 -9.238281 1.429688 -10.957031 2.890625 -12.34375 Z M 8.328125 -12.25 C 6.910156 -12.25 5.691406 -11.757812 4.671875 -10.78125 C 3.660156 -9.8125 3.15625 -8.613281 3.15625 -7.1875 C 3.15625 -5.757812 3.664062 -4.550781 4.6875 -3.5625 C 5.707031 -2.570312 6.921875 -2.078125 8.328125 -2.078125 C 9.742188 -2.078125 10.953125 -2.570312 11.953125 -3.5625 C 12.953125 -4.550781 13.453125 -5.757812 13.453125 -7.1875 C 13.453125 -8.613281 12.953125 -9.8125 11.953125 -10.78125 C 10.953125 -11.757812 9.742188 -12.25 8.328125 -12.25 Z M 8.328125 -12.25 "/></g></g></g><g fill="#ffffff" fill-opacity="1"><g transform="translate(266.190851, 247.02336)"><g><path d="M 11 0 L 8.375 -4.359375 C 8.238281 -4.335938 8.019531 -4.328125 7.71875 -4.328125 L 4.3125 -4.328125 L 4.3125 0 L 1.890625 0 L 1.890625 -14.375 L 7.71875 -14.375 C 9.550781 -14.375 10.972656 -13.945312 11.984375 -13.09375 C 13.003906 -12.238281 13.515625 -11.03125 13.515625 -9.46875 C 13.515625 -8.3125 13.253906 -7.335938 12.734375 -6.546875 C 12.222656 -5.753906 11.488281 -5.171875 10.53125 -4.796875 L 13.75 0 Z M 4.3125 -6.515625 L 7.71875 -6.515625 C 10.039062 -6.515625 11.203125 -7.476562 11.203125 -9.40625 C 11.203125 -11.269531 10.039062 -12.203125 7.71875 -12.203125 L 4.3125 -12.203125 Z M 4.3125 -6.515625 "/></g></g></g><g fill="#ffffff" fill-opacity="1"><g transform="translate(289.240946, 247.02336)"><g><path d="M 11.71875 -7.0625 L 13.84375 -7.0625 L 13.84375 -1.765625 C 13.101562 -1.203125 12.226562 -0.75 11.21875 -0.40625 C 10.21875 -0.0625 9.226562 0.109375 8.25 0.109375 C 6.132812 0.109375 4.347656 -0.59375 2.890625 -2 C 1.429688 -3.40625 0.703125 -5.132812 0.703125 -7.1875 C 0.703125 -9.238281 1.4375 -10.957031 2.90625 -12.34375 C 4.382812 -13.738281 6.210938 -14.4375 8.390625 -14.4375 C 9.410156 -14.4375 10.410156 -14.253906 11.390625 -13.890625 C 12.367188 -13.523438 13.210938 -13.035156 13.921875 -12.421875 L 12.546875 -10.640625 C 11.367188 -11.734375 9.984375 -12.28125 8.390625 -12.28125 C 6.929688 -12.28125 5.691406 -11.785156 4.671875 -10.796875 C 3.660156 -9.816406 3.15625 -8.613281 3.15625 -7.1875 C 3.15625 -5.75 3.664062 -4.535156 4.6875 -3.546875 C 5.707031 -2.566406 6.953125 -2.078125 8.421875 -2.078125 C 9.523438 -2.078125 10.625 -2.40625 11.71875 -3.0625 Z M 11.71875 -7.0625 "/></g></g></g><g fill="#ffffff" fill-opacity="1"><g transform="translate(312.824665, 247.02336)"><g><path d="M 4.3125 0 L 1.890625 0 L 1.890625 -14.375 L 4.3125 -14.375 Z M 4.3125 0 "/></g></g></g><g fill="#ffffff" fill-opacity="1"><g transform="translate(327.233924, 247.02336)"><g><path d="M 11.171875 -3.25 L 3.921875 -3.25 L 2.546875 0 L 0.015625 0 L 6.359375 -14.375 L 8.84375 -14.375 L 15.125 0 L 12.546875 0 Z M 10.25 -5.40625 L 7.53125 -11.78125 L 4.828125 -5.40625 Z M 10.25 -5.40625 "/></g></g></g><g clip-path="url(#cf185d2106)"><g clip-path="url(#9e13656a8b)"><g clip-path="url(#87e45a5014)"><path fill="#000000" d="M 176.558594 127.777344 L 195.253906 140.828125 L 186.464844 153.421875 L 167.769531 140.375 Z M 176.558594 127.777344 " fill-opacity="1" fill-rule="nonzero"/></g></g></g><g fill="#ffffff" fill-opacity="1"><g transform="translate(118.957547, 159.721979)"><g><path d="M 39.828125 1.1875 C 32.679688 1.1875 26.46875 -0.269531 21.1875 -3.1875 C 15.914062 -6.113281 11.867188 -10.050781 9.046875 -15 C 6.222656 -19.945312 4.8125 -25.367188 4.8125 -31.265625 C 4.8125 -37.628906 6.398438 -43.171875 9.578125 -47.890625 C 12.765625 -52.609375 17.128906 -56.226562 22.671875 -58.75 C 28.210938 -61.28125 34.421875 -62.546875 41.296875 -62.546875 C 44.910156 -62.546875 48.222656 -62.1875 51.234375 -61.46875 C 54.253906 -60.75 56.8125 -59.734375 58.90625 -58.421875 C 59.363281 -58.085938 59.625 -57.835938 59.6875 -57.671875 C 59.757812 -57.515625 59.828125 -57.039062 59.890625 -56.25 L 61.078125 -45.234375 C 61.078125 -45.035156 60.894531 -44.90625 60.53125 -44.84375 C 60.164062 -44.78125 59.953125 -44.847656 59.890625 -45.046875 C 58.453125 -50.484375 56.175781 -54.515625 53.0625 -57.140625 C 49.945312 -59.765625 45.566406 -61.078125 39.921875 -61.078125 C 34.484375 -61.078125 29.597656 -59.910156 25.265625 -57.578125 C 20.941406 -55.253906 17.535156 -51.941406 15.046875 -47.640625 C 12.554688 -43.347656 11.3125 -38.316406 11.3125 -32.546875 C 11.3125 -27.109375 12.441406 -21.929688 14.703125 -17.015625 C 16.960938 -12.097656 20.4375 -8.066406 25.125 -4.921875 C 29.8125 -1.773438 35.597656 -0.203125 42.484375 -0.203125 C 47.335938 -0.203125 50.765625 -1.132812 52.765625 -3 C 54.765625 -4.863281 55.765625 -7.960938 55.765625 -12.296875 C 55.765625 -15.703125 55.535156 -18.078125 55.078125 -19.421875 C 54.617188 -20.765625 53.632812 -21.664062 52.125 -22.125 C 50.613281 -22.582031 47.988281 -22.8125 44.25 -22.8125 C 43.863281 -22.8125 43.671875 -23.078125 43.671875 -23.609375 C 43.671875 -23.796875 43.71875 -23.972656 43.8125 -24.140625 C 43.90625 -24.304688 44.019531 -24.390625 44.15625 -24.390625 C 49.207031 -24.054688 53.269531 -23.890625 56.34375 -23.890625 C 59.300781 -23.890625 62.453125 -23.988281 65.796875 -24.1875 C 65.921875 -24.1875 66.03125 -24.101562 66.125 -23.9375 C 66.226562 -23.78125 66.28125 -23.632812 66.28125 -23.5 C 66.28125 -23.039062 66.117188 -22.8125 65.796875 -22.8125 C 64.085938 -22.882812 62.875 -22.671875 62.15625 -22.171875 C 61.4375 -21.679688 60.976562 -20.679688 60.78125 -19.171875 C 60.582031 -17.671875 60.484375 -15.050781 60.484375 -11.3125 C 60.484375 -8.363281 60.597656 -6.265625 60.828125 -5.015625 C 61.054688 -3.765625 61.171875 -2.976562 61.171875 -2.65625 C 61.171875 -2.257812 61.101562 -1.992188 60.96875 -1.859375 C 60.84375 -1.734375 60.550781 -1.601562 60.09375 -1.46875 C 52.15625 0.300781 45.398438 1.1875 39.828125 1.1875 Z M 39.828125 1.1875 "/></g></g></g><g clip-path="url(#4dc1512816)"><g clip-path="url(#42a97f9b3d)"><g clip-path="url(#4ed3308bde)"><path fill="#000000" d="M 209.621094 98.152344 L 224.816406 108.757812 L 156.925781 206.039062 L 141.730469 195.433594 Z M 209.621094 98.152344 " fill-opacity="1" fill-rule="nonzero"/></g></g></g><path stroke-linecap="butt" transform="matrix(0.442086, -0.605855, 0.605855, 0.442086, 148.871918, 195.554195)" fill="none" stroke-linejoin="miter" d="M -0.000749127 0.998549 L 144.907566 0.999468 " stroke="#ffffff" stroke-width="2" stroke-opacity="1" stroke-miterlimit="4"/><g fill="#ffffff" fill-opacity="1"><g transform="translate(87.467247, 273.780835)"><g><path d="M 8.453125 -7.5625 L 2.359375 -5.328125 L 7.59375 -3.109375 L 7.40625 -2.203125 L 1.234375 -4.875 L 1.4375 -5.890625 L 8.671875 -8.59375 Z M 8.453125 -7.5625 "/></g></g></g><g fill="#ffffff" fill-opacity="1"><g transform="translate(100.934457, 273.780835)"><g><path d="M 14.28125 -8.09375 L 9.71875 0 L 8.65625 0 L 7.296875 -6.625 L 3.515625 0 L 2.46875 0 L 0.875 -8.09375 L 1.875 -8.09375 L 3.1875 -1.234375 L 7.09375 -8.09375 L 8.015625 -8.09375 L 9.375 -1.234375 L 13.21875 -8.09375 Z M 14.28125 -8.09375 "/></g></g></g><g fill="#ffffff" fill-opacity="1"><g transform="translate(119.079623, 273.780835)"><g><path d="M 1.734375 -3.734375 C 1.722656 -3.660156 1.71875 -3.554688 1.71875 -3.421875 C 1.71875 -2.597656 1.953125 -1.96875 2.421875 -1.53125 C 2.890625 -1.101562 3.585938 -0.890625 4.515625 -0.890625 C 5.046875 -0.890625 5.539062 -0.976562 6 -1.15625 C 6.46875 -1.34375 6.851562 -1.59375 7.15625 -1.90625 L 7.65625 -1.125 C 7.269531 -0.738281 6.789062 -0.441406 6.21875 -0.234375 C 5.65625 -0.0234375 5.054688 0.078125 4.421875 0.078125 C 3.242188 0.078125 2.316406 -0.226562 1.640625 -0.84375 C 0.972656 -1.457031 0.640625 -2.300781 0.640625 -3.375 C 0.640625 -4.269531 0.832031 -5.082031 1.21875 -5.8125 C 1.601562 -6.539062 2.132812 -7.113281 2.8125 -7.53125 C 3.5 -7.945312 4.269531 -8.15625 5.125 -8.15625 C 6.195312 -8.15625 7.050781 -7.847656 7.6875 -7.234375 C 8.332031 -6.628906 8.65625 -5.789062 8.65625 -4.71875 C 8.65625 -4.425781 8.617188 -4.097656 8.546875 -3.734375 Z M 5.09375 -7.234375 C 4.28125 -7.234375 3.585938 -6.988281 3.015625 -6.5 C 2.441406 -6.019531 2.050781 -5.375 1.84375 -4.5625 L 7.625 -4.5625 C 7.632812 -4.625 7.640625 -4.71875 7.640625 -4.84375 C 7.640625 -5.601562 7.40625 -6.191406 6.9375 -6.609375 C 6.476562 -7.023438 5.863281 -7.234375 5.09375 -7.234375 Z M 5.09375 -7.234375 "/></g></g></g><g fill="#ffffff" fill-opacity="1"><g transform="translate(132.993088, 273.780835)"><g><path d="M 6.265625 -8.15625 C 6.953125 -8.15625 7.5625 -8.015625 8.09375 -7.734375 C 8.632812 -7.460938 9.050781 -7.066406 9.34375 -6.546875 C 9.644531 -6.035156 9.796875 -5.429688 9.796875 -4.734375 C 9.796875 -3.828125 9.597656 -3.003906 9.203125 -2.265625 C 8.816406 -1.535156 8.273438 -0.960938 7.578125 -0.546875 C 6.878906 -0.128906 6.09375 0.078125 5.21875 0.078125 C 4.4375 0.078125 3.78125 -0.078125 3.25 -0.390625 C 2.726562 -0.710938 2.351562 -1.171875 2.125 -1.765625 L 1.765625 0 L 0.71875 0 L 3 -11.421875 L 4.09375 -11.421875 L 3.1875 -6.875 C 3.570312 -7.289062 4.023438 -7.609375 4.546875 -7.828125 C 5.066406 -8.046875 5.640625 -8.15625 6.265625 -8.15625 Z M 5.203125 -0.890625 C 5.867188 -0.890625 6.460938 -1.050781 6.984375 -1.375 C 7.515625 -1.695312 7.929688 -2.144531 8.234375 -2.71875 C 8.546875 -3.300781 8.703125 -3.953125 8.703125 -4.671875 C 8.703125 -5.460938 8.46875 -6.082031 8 -6.53125 C 7.53125 -6.976562 6.875 -7.203125 6.03125 -7.203125 C 5.363281 -7.203125 4.765625 -7.039062 4.234375 -6.71875 C 3.710938 -6.394531 3.300781 -5.941406 3 -5.359375 C 2.695312 -4.785156 2.546875 -4.132812 2.546875 -3.40625 C 2.546875 -2.613281 2.773438 -1.992188 3.234375 -1.546875 C 3.703125 -1.109375 4.359375 -0.890625 5.203125 -0.890625 Z M 5.203125 -0.890625 "/></g></g></g><g fill="#ffffff" fill-opacity="1"><g transform="translate(148.045274, 273.780835)"><g/></g></g><g fill="#ffffff" fill-opacity="1"><g transform="translate(156.696048, 273.780835)"><g><path d="M 10.390625 -11.421875 L 8.109375 0 L 7.0625 0 L 7.328125 -1.28125 C 6.929688 -0.84375 6.46875 -0.503906 5.9375 -0.265625 C 5.40625 -0.0351562 4.816406 0.078125 4.171875 0.078125 C 3.484375 0.078125 2.875 -0.0546875 2.34375 -0.328125 C 1.8125 -0.609375 1.394531 -1.007812 1.09375 -1.53125 C 0.789062 -2.050781 0.640625 -2.660156 0.640625 -3.359375 C 0.640625 -4.265625 0.835938 -5.082031 1.234375 -5.8125 C 1.628906 -6.539062 2.175781 -7.113281 2.875 -7.53125 C 3.570312 -7.945312 4.351562 -8.15625 5.21875 -8.15625 C 5.976562 -8.15625 6.617188 -8.003906 7.140625 -7.703125 C 7.671875 -7.398438 8.054688 -6.96875 8.296875 -6.40625 L 9.296875 -11.421875 Z M 4.40625 -0.890625 C 5.070312 -0.890625 5.671875 -1.050781 6.203125 -1.375 C 6.734375 -1.695312 7.148438 -2.144531 7.453125 -2.71875 C 7.753906 -3.300781 7.90625 -3.953125 7.90625 -4.671875 C 7.90625 -5.460938 7.671875 -6.082031 7.203125 -6.53125 C 6.742188 -6.976562 6.09375 -7.203125 5.25 -7.203125 C 4.582031 -7.203125 3.976562 -7.035156 3.4375 -6.703125 C 2.90625 -6.378906 2.488281 -5.925781 2.1875 -5.34375 C 1.882812 -4.769531 1.734375 -4.125 1.734375 -3.40625 C 1.734375 -2.613281 1.96875 -1.992188 2.4375 -1.546875 C 2.90625 -1.109375 3.5625 -0.890625 4.40625 -0.890625 Z M 4.40625 -0.890625 "/></g></g></g><g fill="#ffffff" fill-opacity="1"><g transform="translate(171.748237, 273.780835)"><g><path d="M 1.734375 -3.734375 C 1.722656 -3.660156 1.71875 -3.554688 1.71875 -3.421875 C 1.71875 -2.597656 1.953125 -1.96875 2.421875 -1.53125 C 2.890625 -1.101562 3.585938 -0.890625 4.515625 -0.890625 C 5.046875 -0.890625 5.539062 -0.976562 6 -1.15625 C 6.46875 -1.34375 6.851562 -1.59375 7.15625 -1.90625 L 7.65625 -1.125 C 7.269531 -0.738281 6.789062 -0.441406 6.21875 -0.234375 C 5.65625 -0.0234375 5.054688 0.078125 4.421875 0.078125 C 3.242188 0.078125 2.316406 -0.226562 1.640625 -0.84375 C 0.972656 -1.457031 0.640625 -2.300781 0.640625 -3.375 C 0.640625 -4.269531 0.832031 -5.082031 1.21875 -5.8125 C 1.601562 -6.539062 2.132812 -7.113281 2.8125 -7.53125 C 3.5 -7.945312 4.269531 -8.15625 5.125 -8.15625 C 6.195312 -8.15625 7.050781 -7.847656 7.6875 -7.234375 C 8.332031 -6.628906 8.65625 -5.789062 8.65625 -4.71875 C 8.65625 -4.425781 8.617188 -4.097656 8.546875 -3.734375 Z M 5.09375 -7.234375 C 4.28125 -7.234375 3.585938 -6.988281 3.015625 -6.5 C 2.441406 -6.019531 2.050781 -5.375 1.84375 -4.5625 L 7.625 -4.5625 C 7.632812 -4.625 7.640625 -4.71875 7.640625 -4.84375 C 7.640625 -5.601562 7.40625 -6.191406 6.9375 -6.609375 C 6.476562 -7.023438 5.863281 -7.234375 5.09375 -7.234375 Z M 5.09375 -7.234375 "/></g></g></g><g fill="#ffffff" fill-opacity="1"><g transform="translate(185.661706, 273.780835)"><g><path d="M 9.140625 -8.09375 L 3.9375 0 L 2.8125 0 L 0.8125 -8.09375 L 1.90625 -8.09375 L 3.59375 -1.1875 L 8 -8.09375 Z M 9.140625 -8.09375 "/></g></g></g><g fill="#ffffff" fill-opacity="1"><g transform="translate(198.621125, 273.780835)"><g><path d="M 1.734375 -3.734375 C 1.722656 -3.660156 1.71875 -3.554688 1.71875 -3.421875 C 1.71875 -2.597656 1.953125 -1.96875 2.421875 -1.53125 C 2.890625 -1.101562 3.585938 -0.890625 4.515625 -0.890625 C 5.046875 -0.890625 5.539062 -0.976562 6 -1.15625 C 6.46875 -1.34375 6.851562 -1.59375 7.15625 -1.90625 L 7.65625 -1.125 C 7.269531 -0.738281 6.789062 -0.441406 6.21875 -0.234375 C 5.65625 -0.0234375 5.054688 0.078125 4.421875 0.078125 C 3.242188 0.078125 2.316406 -0.226562 1.640625 -0.84375 C 0.972656 -1.457031 0.640625 -2.300781 0.640625 -3.375 C 0.640625 -4.269531 0.832031 -5.082031 1.21875 -5.8125 C 1.601562 -6.539062 2.132812 -7.113281 2.8125 -7.53125 C 3.5 -7.945312 4.269531 -8.15625 5.125 -8.15625 C 6.195312 -8.15625 7.050781 -7.847656 7.6875 -7.234375 C 8.332031 -6.628906 8.65625 -5.789062 8.65625 -4.71875 C 8.65625 -4.425781 8.617188 -4.097656 8.546875 -3.734375 Z M 5.09375 -7.234375 C 4.28125 -7.234375 3.585938 -6.988281 3.015625 -6.5 C 2.441406 -6.019531 2.050781 -5.375 1.84375 -4.5625 L 7.625 -4.5625 C 7.632812 -4.625 7.640625 -4.71875 7.640625 -4.84375 C 7.640625 -5.601562 7.40625 -6.191406 6.9375 -6.609375 C 6.476562 -7.023438 5.863281 -7.234375 5.09375 -7.234375 Z M 5.09375 -7.234375 "/></g></g></g><g fill="#ffffff" fill-opacity="1"><g transform="translate(212.534594, 273.780835)"><g><path d="M 3 -11.421875 L 4.09375 -11.421875 L 1.8125 0 L 0.71875 0 Z M 3 -11.421875 "/></g></g></g><g fill="#ffffff" fill-opacity="1"><g transform="translate(221.293081, 273.780835)"><g><path d="M 4.328125 0.078125 C 3.585938 0.078125 2.9375 -0.0625 2.375 -0.34375 C 1.820312 -0.625 1.394531 -1.023438 1.09375 -1.546875 C 0.789062 -2.066406 0.640625 -2.671875 0.640625 -3.359375 C 0.640625 -4.265625 0.835938 -5.082031 1.234375 -5.8125 C 1.640625 -6.539062 2.195312 -7.113281 2.90625 -7.53125 C 3.625 -7.945312 4.429688 -8.15625 5.328125 -8.15625 C 6.453125 -8.15625 7.34375 -7.847656 8 -7.234375 C 8.664062 -6.617188 9 -5.785156 9 -4.734375 C 9 -3.828125 8.796875 -3.003906 8.390625 -2.265625 C 7.992188 -1.535156 7.4375 -0.960938 6.71875 -0.546875 C 6.007812 -0.128906 5.210938 0.078125 4.328125 0.078125 Z M 4.40625 -0.890625 C 5.070312 -0.890625 5.671875 -1.050781 6.203125 -1.375 C 6.734375 -1.695312 7.148438 -2.144531 7.453125 -2.71875 C 7.753906 -3.300781 7.90625 -3.953125 7.90625 -4.671875 C 7.90625 -5.460938 7.671875 -6.082031 7.203125 -6.53125 C 6.742188 -6.976562 6.09375 -7.203125 5.25 -7.203125 C 4.582031 -7.203125 3.976562 -7.035156 3.4375 -6.703125 C 2.90625 -6.378906 2.488281 -5.925781 2.1875 -5.34375 C 1.882812 -4.769531 1.734375 -4.125 1.734375 -3.40625 C 1.734375 -2.613281 1.96875 -1.992188 2.4375 -1.546875 C 2.90625 -1.109375 3.5625 -0.890625 4.40625 -0.890625 Z M 4.40625 -0.890625 "/></g></g></g><g fill="#ffffff" fill-opacity="1"><g transform="translate(235.560471, 273.780835)"><g><path d="M 6.265625 -8.15625 C 6.953125 -8.15625 7.5625 -8.015625 8.09375 -7.734375 C 8.632812 -7.460938 9.050781 -7.066406 9.34375 -6.546875 C 9.644531 -6.035156 9.796875 -5.429688 9.796875 -4.734375 C 9.796875 -3.828125 9.597656 -3.003906 9.203125 -2.265625 C 8.816406 -1.535156 8.273438 -0.960938 7.578125 -0.546875 C 6.878906 -0.128906 6.09375 0.078125 5.21875 0.078125 C 4.445312 0.078125 3.800781 -0.0703125 3.28125 -0.375 C 2.757812 -0.675781 2.378906 -1.113281 2.140625 -1.6875 L 1.21875 2.984375 L 0.125 2.984375 L 2.328125 -8.09375 L 3.375 -8.09375 L 3.109375 -6.796875 C 3.492188 -7.242188 3.953125 -7.582031 4.484375 -7.8125 C 5.023438 -8.039062 5.617188 -8.15625 6.265625 -8.15625 Z M 5.203125 -0.890625 C 5.867188 -0.890625 6.460938 -1.050781 6.984375 -1.375 C 7.515625 -1.695312 7.929688 -2.144531 8.234375 -2.71875 C 8.546875 -3.300781 8.703125 -3.953125 8.703125 -4.671875 C 8.703125 -5.460938 8.46875 -6.082031 8 -6.53125 C 7.53125 -6.976562 6.875 -7.203125 6.03125 -7.203125 C 5.363281 -7.203125 4.765625 -7.039062 4.234375 -6.71875 C 3.710938 -6.394531 3.300781 -5.941406 3 -5.359375 C 2.695312 -4.785156 2.546875 -4.132812 2.546875 -3.40625 C 2.546875 -2.613281 2.773438 -1.992188 3.234375 -1.546875 C 3.703125 -1.109375 4.359375 -0.890625 5.203125 -0.890625 Z M 5.203125 -0.890625 "/></g></g></g><g fill="#ffffff" fill-opacity="1"><g transform="translate(250.61266, 273.780835)"><g><path d="M 1.734375 -3.734375 C 1.722656 -3.660156 1.71875 -3.554688 1.71875 -3.421875 C 1.71875 -2.597656 1.953125 -1.96875 2.421875 -1.53125 C 2.890625 -1.101562 3.585938 -0.890625 4.515625 -0.890625 C 5.046875 -0.890625 5.539062 -0.976562 6 -1.15625 C 6.46875 -1.34375 6.851562 -1.59375 7.15625 -1.90625 L 7.65625 -1.125 C 7.269531 -0.738281 6.789062 -0.441406 6.21875 -0.234375 C 5.65625 -0.0234375 5.054688 0.078125 4.421875 0.078125 C 3.242188 0.078125 2.316406 -0.226562 1.640625 -0.84375 C 0.972656 -1.457031 0.640625 -2.300781 0.640625 -3.375 C 0.640625 -4.269531 0.832031 -5.082031 1.21875 -5.8125 C 1.601562 -6.539062 2.132812 -7.113281 2.8125 -7.53125 C 3.5 -7.945312 4.269531 -8.15625 5.125 -8.15625 C 6.195312 -8.15625 7.050781 -7.847656 7.6875 -7.234375 C 8.332031 -6.628906 8.65625 -5.789062 8.65625 -4.71875 C 8.65625 -4.425781 8.617188 -4.097656 8.546875 -3.734375 Z M 5.09375 -7.234375 C 4.28125 -7.234375 3.585938 -6.988281 3.015625 -6.5 C 2.441406 -6.019531 2.050781 -5.375 1.84375 -4.5625 L 7.625 -4.5625 C 7.632812 -4.625 7.640625 -4.71875 7.640625 -4.84375 C 7.640625 -5.601562 7.40625 -6.191406 6.9375 -6.609375 C 6.476562 -7.023438 5.863281 -7.234375 5.09375 -7.234375 Z M 5.09375 -7.234375 "/></g></g></g><g fill="#ffffff" fill-opacity="1"><g transform="translate(264.526129, 273.780835)"><g><path d="M 3.09375 -6.625 C 3.445312 -7.144531 3.894531 -7.53125 4.4375 -7.78125 C 4.988281 -8.03125 5.648438 -8.15625 6.421875 -8.15625 L 6.21875 -7.09375 L 5.90625 -7.109375 C 5.039062 -7.109375 4.328125 -6.859375 3.765625 -6.359375 C 3.203125 -5.859375 2.820312 -5.109375 2.625 -4.109375 L 1.8125 0 L 0.71875 0 L 2.328125 -8.09375 L 3.375 -8.09375 Z M 3.09375 -6.625 "/></g></g></g><g fill="#ffffff" fill-opacity="1"><g transform="translate(275.315834, 273.780835)"><g><path d="M 6.421875 -12.953125 L 7.484375 -12.953125 L -0.46875 1.546875 L -1.53125 1.546875 Z M 6.421875 -12.953125 "/></g></g></g><g fill="#ffffff" fill-opacity="1"><g transform="translate(285.089924, 273.780835)"><g><path d="M 8.140625 -5.890625 L 7.9375 -4.875 L 0.71875 -2.203125 L 0.9375 -3.21875 L 7.015625 -5.4375 L 1.8125 -7.671875 L 2 -8.59375 Z M 8.140625 -5.890625 "/></g></g></g></svg>