<svg xmlns="http://www.w3.org/2000/svg" xmlns:xlink="http://www.w3.org/1999/xlink" width="522" zoomAndPan="magnify" viewBox="0 0 391.5 60" height="80" preserveAspectRatio="xMidYMid meet" version="1.0"><defs><g/></defs><g fill="#ffffff" fill-opacity="1"><g transform="translate(43.80247, 23.949865)"><g><path d="M 17.0625 0 L 14.828125 0 L 14.796875 -10.71875 L 10.265625 -1.5 L 8.6875 -1.5 L 4.15625 -10.71875 L 4.15625 0 L 1.890625 0 L 1.890625 -14.34375 L 4.75 -14.34375 L 9.484375 -4.8125 L 14.203125 -14.34375 L 17.0625 -14.34375 Z M 17.0625 0 "/></g></g></g><g fill="#ffffff" fill-opacity="1"><g transform="translate(70.963806, 23.949865)"><g><path d="M 11.15625 -3.234375 L 3.921875 -3.234375 L 2.546875 0 L 0.015625 0 L 6.359375 -14.34375 L 8.828125 -14.34375 L 15.109375 0 L 12.53125 0 Z M 10.234375 -5.390625 L 7.53125 -11.765625 L 4.8125 -5.390625 Z M 10.234375 -5.390625 "/></g></g></g><g fill="#ffffff" fill-opacity="1"><g transform="translate(94.291959, 23.949865)"><g><path d="M 14.328125 0 L 11.953125 0 L 4.3125 -10.296875 L 4.3125 0 L 1.890625 0 L 1.890625 -14.34375 L 4.265625 -14.34375 L 11.953125 -4.03125 L 11.953125 -14.34375 L 14.328125 -14.34375 Z M 14.328125 0 "/></g></g></g><g fill="#ffffff" fill-opacity="1"><g transform="translate(118.727015, 23.949865)"><g><path d="M 8.234375 -14.40625 C 9.253906 -14.40625 10.242188 -14.210938 11.203125 -13.828125 C 12.171875 -13.441406 13 -12.898438 13.6875 -12.203125 L 12.28125 -10.4375 C 11.757812 -11 11.144531 -11.441406 10.4375 -11.765625 C 9.726562 -12.097656 9.007812 -12.265625 8.28125 -12.265625 C 6.84375 -12.265625 5.628906 -11.773438 4.640625 -10.796875 C 3.648438 -9.816406 3.15625 -8.625 3.15625 -7.21875 C 3.15625 -5.789062 3.648438 -4.585938 4.640625 -3.609375 C 5.628906 -2.640625 6.84375 -2.15625 8.28125 -2.15625 C 9.769531 -2.15625 11.101562 -2.722656 12.28125 -3.859375 L 13.71875 -2.25 C 12.976562 -1.53125 12.113281 -0.957031 11.125 -0.53125 C 10.144531 -0.101562 9.15625 0.109375 8.15625 0.109375 C 6.050781 0.109375 4.28125 -0.585938 2.84375 -1.984375 C 1.414062 -3.390625 0.703125 -5.128906 0.703125 -7.203125 C 0.703125 -9.234375 1.425781 -10.941406 2.875 -12.328125 C 4.332031 -13.710938 6.117188 -14.40625 8.234375 -14.40625 Z M 8.234375 -14.40625 "/></g></g></g><g fill="#ffffff" fill-opacity="1"><g transform="translate(141.214744, 23.949865)"><g><path d="M 4.3125 0 L 1.890625 0 L 1.890625 -14.34375 L 4.3125 -14.34375 Z M 4.3125 0 "/></g></g></g><g fill="#ffffff" fill-opacity="1"><g transform="translate(155.605632, 23.949865)"><g><path d="M 14.328125 0 L 11.953125 0 L 4.3125 -10.296875 L 4.3125 0 L 1.890625 0 L 1.890625 -14.34375 L 4.265625 -14.34375 L 11.953125 -4.03125 L 11.953125 -14.34375 L 14.328125 -14.34375 Z M 14.328125 0 "/></g></g></g><g fill="#ffffff" fill-opacity="1"><g transform="translate(180.040685, 23.949865)"><g><path d="M 4.3125 0 L 1.890625 0 L 1.890625 -14.34375 L 4.3125 -14.34375 Z M 4.3125 0 "/></g></g></g><g fill="#ffffff" fill-opacity="1"><g transform="translate(194.431565, 23.949865)"><g/></g></g><g fill="#ffffff" fill-opacity="1"><g transform="translate(207.920529, 23.949865)"><g><path d="M 11.703125 -7.046875 L 13.8125 -7.046875 L 13.8125 -1.765625 C 13.070312 -1.203125 12.203125 -0.75 11.203125 -0.40625 C 10.203125 -0.0625 9.210938 0.109375 8.234375 0.109375 C 6.117188 0.109375 4.332031 -0.585938 2.875 -1.984375 C 1.425781 -3.390625 0.703125 -5.117188 0.703125 -7.171875 C 0.703125 -9.222656 1.4375 -10.941406 2.90625 -12.328125 C 4.382812 -13.710938 6.210938 -14.40625 8.390625 -14.40625 C 9.398438 -14.40625 10.390625 -14.222656 11.359375 -13.859375 C 12.335938 -13.503906 13.1875 -13.019531 13.90625 -12.40625 L 12.53125 -10.625 C 11.351562 -11.71875 9.972656 -12.265625 8.390625 -12.265625 C 6.921875 -12.265625 5.679688 -11.769531 4.671875 -10.78125 C 3.660156 -9.800781 3.15625 -8.597656 3.15625 -7.171875 C 3.15625 -5.734375 3.664062 -4.523438 4.6875 -3.546875 C 5.707031 -2.566406 6.945312 -2.078125 8.40625 -2.078125 C 9.507812 -2.078125 10.609375 -2.398438 11.703125 -3.046875 Z M 11.703125 -7.046875 "/></g></g></g><g fill="#ffffff" fill-opacity="1"><g transform="translate(231.474153, 23.949865)"><g><path d="M 4.3125 0 L 1.890625 0 L 1.890625 -14.34375 L 4.3125 -14.34375 Z M 4.3125 0 "/></g></g></g><g fill="#ffffff" fill-opacity="1"><g transform="translate(245.865033, 23.949865)"><g><path d="M 2.890625 -12.328125 C 4.347656 -13.710938 6.148438 -14.40625 8.296875 -14.40625 C 10.441406 -14.40625 12.242188 -13.710938 13.703125 -12.328125 C 15.171875 -10.941406 15.90625 -9.222656 15.90625 -7.171875 C 15.90625 -5.117188 15.171875 -3.390625 13.703125 -1.984375 C 12.242188 -0.585938 10.441406 0.109375 8.296875 0.109375 C 6.148438 0.109375 4.347656 -0.585938 2.890625 -1.984375 C 1.429688 -3.390625 0.703125 -5.117188 0.703125 -7.171875 C 0.703125 -9.222656 1.429688 -10.941406 2.890625 -12.328125 Z M 8.328125 -12.234375 C 6.898438 -12.234375 5.679688 -11.742188 4.671875 -10.765625 C 3.660156 -9.796875 3.15625 -8.597656 3.15625 -7.171875 C 3.15625 -5.753906 3.664062 -4.550781 4.6875 -3.5625 C 5.707031 -2.570312 6.921875 -2.078125 8.328125 -2.078125 C 9.734375 -2.078125 10.929688 -2.570312 11.921875 -3.5625 C 12.921875 -4.550781 13.421875 -5.753906 13.421875 -7.171875 C 13.421875 -8.597656 12.921875 -9.796875 11.921875 -10.765625 C 10.929688 -11.742188 9.734375 -12.234375 8.328125 -12.234375 Z M 8.328125 -12.234375 "/></g></g></g><g fill="#ffffff" fill-opacity="1"><g transform="translate(270.669058, 23.949865)"><g><path d="M 10.984375 0 L 8.359375 -4.34375 C 8.222656 -4.332031 8.003906 -4.328125 7.703125 -4.328125 L 4.3125 -4.328125 L 4.3125 0 L 1.890625 0 L 1.890625 -14.34375 L 7.703125 -14.34375 C 9.535156 -14.34375 10.957031 -13.914062 11.96875 -13.0625 C 12.976562 -12.207031 13.484375 -11.003906 13.484375 -9.453125 C 13.484375 -8.304688 13.226562 -7.332031 12.71875 -6.53125 C 12.207031 -5.738281 11.472656 -5.160156 10.515625 -4.796875 L 13.734375 0 Z M 4.3125 -6.5 L 7.703125 -6.5 C 10.023438 -6.5 11.1875 -7.460938 11.1875 -9.390625 C 11.1875 -11.242188 10.023438 -12.171875 7.703125 -12.171875 L 4.3125 -12.171875 Z M 4.3125 -6.5 "/></g></g></g><g fill="#ffffff" fill-opacity="1"><g transform="translate(293.689753, 23.949865)"><g><path d="M 11.703125 -7.046875 L 13.8125 -7.046875 L 13.8125 -1.765625 C 13.070312 -1.203125 12.203125 -0.75 11.203125 -0.40625 C 10.203125 -0.0625 9.210938 0.109375 8.234375 0.109375 C 6.117188 0.109375 4.332031 -0.585938 2.875 -1.984375 C 1.425781 -3.390625 0.703125 -5.117188 0.703125 -7.171875 C 0.703125 -9.222656 1.4375 -10.941406 2.90625 -12.328125 C 4.382812 -13.710938 6.210938 -14.40625 8.390625 -14.40625 C 9.398438 -14.40625 10.390625 -14.222656 11.359375 -13.859375 C 12.335938 -13.503906 13.1875 -13.019531 13.90625 -12.40625 L 12.53125 -10.625 C 11.351562 -11.71875 9.972656 -12.265625 8.390625 -12.265625 C 6.921875 -12.265625 5.679688 -11.769531 4.671875 -10.78125 C 3.660156 -9.800781 3.15625 -8.597656 3.15625 -7.171875 C 3.15625 -5.734375 3.664062 -4.523438 4.6875 -3.546875 C 5.707031 -2.566406 6.945312 -2.078125 8.40625 -2.078125 C 9.507812 -2.078125 10.609375 -2.398438 11.703125 -3.046875 Z M 11.703125 -7.046875 "/></g></g></g><g fill="#ffffff" fill-opacity="1"><g transform="translate(317.243392, 23.949865)"><g><path d="M 4.3125 0 L 1.890625 0 L 1.890625 -14.34375 L 4.3125 -14.34375 Z M 4.3125 0 "/></g></g></g><g fill="#ffffff" fill-opacity="1"><g transform="translate(331.634272, 23.949865)"><g><path d="M 11.15625 -3.234375 L 3.921875 -3.234375 L 2.546875 0 L 0.015625 0 L 6.359375 -14.34375 L 8.828125 -14.34375 L 15.109375 0 L 12.53125 0 Z M 10.234375 -5.390625 L 7.53125 -11.765625 L 4.8125 -5.390625 Z M 10.234375 -5.390625 "/></g></g></g><g fill="#ffffff" fill-opacity="1"><g transform="translate(92.173413, 50.673209)"><g><path d="M 8.4375 -7.546875 L 2.359375 -5.3125 L 7.578125 -3.109375 L 7.390625 -2.203125 L 1.234375 -4.875 L 1.4375 -5.890625 L 8.65625 -8.578125 Z M 8.4375 -7.546875 "/></g></g></g><g fill="#ffffff" fill-opacity="1"><g transform="translate(105.623445, 50.673209)"><g><path d="M 14.265625 -8.09375 L 9.703125 0 L 8.640625 0 L 7.28125 -6.609375 L 3.5 0 L 2.453125 0 L 0.875 -8.09375 L 1.875 -8.09375 L 3.1875 -1.234375 L 7.09375 -8.09375 L 8.015625 -8.09375 L 9.359375 -1.234375 L 13.203125 -8.09375 Z M 14.265625 -8.09375 "/></g></g></g><g fill="#ffffff" fill-opacity="1"><g transform="translate(123.745467, 50.673209)"><g><path d="M 1.734375 -3.734375 C 1.722656 -3.660156 1.71875 -3.550781 1.71875 -3.40625 C 1.71875 -2.59375 1.953125 -1.96875 2.421875 -1.53125 C 2.890625 -1.101562 3.582031 -0.890625 4.5 -0.890625 C 5.03125 -0.890625 5.53125 -0.976562 6 -1.15625 C 6.46875 -1.34375 6.851562 -1.59375 7.15625 -1.90625 L 7.640625 -1.125 C 7.265625 -0.738281 6.789062 -0.441406 6.21875 -0.234375 C 5.644531 -0.0234375 5.039062 0.078125 4.40625 0.078125 C 3.238281 0.078125 2.316406 -0.226562 1.640625 -0.84375 C 0.972656 -1.457031 0.640625 -2.296875 0.640625 -3.359375 C 0.640625 -4.265625 0.832031 -5.082031 1.21875 -5.8125 C 1.601562 -6.539062 2.132812 -7.113281 2.8125 -7.53125 C 3.5 -7.945312 4.269531 -8.15625 5.125 -8.15625 C 6.195312 -8.15625 7.050781 -7.847656 7.6875 -7.234375 C 8.320312 -6.617188 8.640625 -5.78125 8.640625 -4.71875 C 8.640625 -4.425781 8.601562 -4.097656 8.53125 -3.734375 Z M 5.09375 -7.21875 C 4.28125 -7.21875 3.585938 -6.976562 3.015625 -6.5 C 2.441406 -6.019531 2.050781 -5.367188 1.84375 -4.546875 L 7.609375 -4.546875 C 7.617188 -4.617188 7.625 -4.71875 7.625 -4.84375 C 7.625 -5.601562 7.394531 -6.1875 6.9375 -6.59375 C 6.476562 -7.007812 5.863281 -7.21875 5.09375 -7.21875 Z M 5.09375 -7.21875 "/></g></g></g><g fill="#ffffff" fill-opacity="1"><g transform="translate(137.641186, 50.673209)"><g><path d="M 6.25 -8.15625 C 6.9375 -8.15625 7.550781 -8.015625 8.09375 -7.734375 C 8.632812 -7.453125 9.050781 -7.054688 9.34375 -6.546875 C 9.644531 -6.035156 9.796875 -5.429688 9.796875 -4.734375 C 9.796875 -3.816406 9.597656 -2.992188 9.203125 -2.265625 C 8.804688 -1.535156 8.257812 -0.960938 7.5625 -0.546875 C 6.863281 -0.128906 6.082031 0.078125 5.21875 0.078125 C 4.4375 0.078125 3.78125 -0.078125 3.25 -0.390625 C 2.71875 -0.710938 2.34375 -1.171875 2.125 -1.765625 L 1.765625 0 L 0.71875 0 L 3 -11.40625 L 4.09375 -11.40625 L 3.1875 -6.875 C 3.570312 -7.28125 4.019531 -7.59375 4.53125 -7.8125 C 5.050781 -8.039062 5.625 -8.15625 6.25 -8.15625 Z M 5.203125 -0.890625 C 5.867188 -0.890625 6.460938 -1.050781 6.984375 -1.375 C 7.515625 -1.695312 7.929688 -2.144531 8.234375 -2.71875 C 8.535156 -3.289062 8.6875 -3.941406 8.6875 -4.671875 C 8.6875 -5.460938 8.453125 -6.082031 7.984375 -6.53125 C 7.515625 -6.976562 6.863281 -7.203125 6.03125 -7.203125 C 5.363281 -7.203125 4.765625 -7.039062 4.234375 -6.71875 C 3.703125 -6.394531 3.285156 -5.941406 2.984375 -5.359375 C 2.679688 -4.773438 2.53125 -4.117188 2.53125 -3.390625 C 2.53125 -2.609375 2.765625 -1.992188 3.234375 -1.546875 C 3.703125 -1.109375 4.359375 -0.890625 5.203125 -0.890625 Z M 5.203125 -0.890625 "/></g></g></g><g fill="#ffffff" fill-opacity="1"><g transform="translate(152.674173, 50.673209)"><g/></g></g><g fill="#ffffff" fill-opacity="1"><g transform="translate(161.313914, 50.673209)"><g><path d="M 10.375 -11.40625 L 8.109375 0 L 7.0625 0 L 7.3125 -1.28125 C 6.925781 -0.84375 6.46875 -0.503906 5.9375 -0.265625 C 5.40625 -0.0351562 4.816406 0.078125 4.171875 0.078125 C 3.484375 0.078125 2.867188 -0.0546875 2.328125 -0.328125 C 1.796875 -0.609375 1.378906 -1.007812 1.078125 -1.53125 C 0.785156 -2.050781 0.640625 -2.660156 0.640625 -3.359375 C 0.640625 -4.265625 0.835938 -5.082031 1.234375 -5.8125 C 1.628906 -6.539062 2.175781 -7.113281 2.875 -7.53125 C 3.570312 -7.945312 4.351562 -8.15625 5.21875 -8.15625 C 5.96875 -8.15625 6.609375 -8 7.140625 -7.6875 C 7.671875 -7.382812 8.050781 -6.953125 8.28125 -6.390625 L 9.28125 -11.40625 Z M 4.390625 -0.890625 C 5.054688 -0.890625 5.65625 -1.050781 6.1875 -1.375 C 6.726562 -1.695312 7.148438 -2.144531 7.453125 -2.71875 C 7.753906 -3.300781 7.90625 -3.953125 7.90625 -4.671875 C 7.90625 -5.460938 7.671875 -6.082031 7.203125 -6.53125 C 6.734375 -6.976562 6.082031 -7.203125 5.25 -7.203125 C 4.582031 -7.203125 3.976562 -7.035156 3.4375 -6.703125 C 2.90625 -6.378906 2.488281 -5.925781 2.1875 -5.34375 C 1.882812 -4.757812 1.734375 -4.109375 1.734375 -3.390625 C 1.734375 -2.609375 1.96875 -1.992188 2.4375 -1.546875 C 2.90625 -1.109375 3.554688 -0.890625 4.390625 -0.890625 Z M 4.390625 -0.890625 "/></g></g></g><g fill="#ffffff" fill-opacity="1"><g transform="translate(176.346904, 50.673209)"><g><path d="M 1.734375 -3.734375 C 1.722656 -3.660156 1.71875 -3.550781 1.71875 -3.40625 C 1.71875 -2.59375 1.953125 -1.96875 2.421875 -1.53125 C 2.890625 -1.101562 3.582031 -0.890625 4.5 -0.890625 C 5.03125 -0.890625 5.53125 -0.976562 6 -1.15625 C 6.46875 -1.34375 6.851562 -1.59375 7.15625 -1.90625 L 7.640625 -1.125 C 7.265625 -0.738281 6.789062 -0.441406 6.21875 -0.234375 C 5.644531 -0.0234375 5.039062 0.078125 4.40625 0.078125 C 3.238281 0.078125 2.316406 -0.226562 1.640625 -0.84375 C 0.972656 -1.457031 0.640625 -2.296875 0.640625 -3.359375 C 0.640625 -4.265625 0.832031 -5.082031 1.21875 -5.8125 C 1.601562 -6.539062 2.132812 -7.113281 2.8125 -7.53125 C 3.5 -7.945312 4.269531 -8.15625 5.125 -8.15625 C 6.195312 -8.15625 7.050781 -7.847656 7.6875 -7.234375 C 8.320312 -6.617188 8.640625 -5.78125 8.640625 -4.71875 C 8.640625 -4.425781 8.601562 -4.097656 8.53125 -3.734375 Z M 5.09375 -7.21875 C 4.28125 -7.21875 3.585938 -6.976562 3.015625 -6.5 C 2.441406 -6.019531 2.050781 -5.367188 1.84375 -4.546875 L 7.609375 -4.546875 C 7.617188 -4.617188 7.625 -4.71875 7.625 -4.84375 C 7.625 -5.601562 7.394531 -6.1875 6.9375 -6.59375 C 6.476562 -7.007812 5.863281 -7.21875 5.09375 -7.21875 Z M 5.09375 -7.21875 "/></g></g></g><g fill="#ffffff" fill-opacity="1"><g transform="translate(190.242627, 50.673209)"><g><path d="M 9.125 -8.09375 L 3.9375 0 L 2.8125 0 L 0.8125 -8.09375 L 1.90625 -8.09375 L 3.578125 -1.1875 L 8 -8.09375 Z M 9.125 -8.09375 "/></g></g></g><g fill="#ffffff" fill-opacity="1"><g transform="translate(203.185516, 50.673209)"><g><path d="M 1.734375 -3.734375 C 1.722656 -3.660156 1.71875 -3.550781 1.71875 -3.40625 C 1.71875 -2.59375 1.953125 -1.96875 2.421875 -1.53125 C 2.890625 -1.101562 3.582031 -0.890625 4.5 -0.890625 C 5.03125 -0.890625 5.53125 -0.976562 6 -1.15625 C 6.46875 -1.34375 6.851562 -1.59375 7.15625 -1.90625 L 7.640625 -1.125 C 7.265625 -0.738281 6.789062 -0.441406 6.21875 -0.234375 C 5.644531 -0.0234375 5.039062 0.078125 4.40625 0.078125 C 3.238281 0.078125 2.316406 -0.226562 1.640625 -0.84375 C 0.972656 -1.457031 0.640625 -2.296875 0.640625 -3.359375 C 0.640625 -4.265625 0.832031 -5.082031 1.21875 -5.8125 C 1.601562 -6.539062 2.132812 -7.113281 2.8125 -7.53125 C 3.5 -7.945312 4.269531 -8.15625 5.125 -8.15625 C 6.195312 -8.15625 7.050781 -7.847656 7.6875 -7.234375 C 8.320312 -6.617188 8.640625 -5.78125 8.640625 -4.71875 C 8.640625 -4.425781 8.601562 -4.097656 8.53125 -3.734375 Z M 5.09375 -7.21875 C 4.28125 -7.21875 3.585938 -6.976562 3.015625 -6.5 C 2.441406 -6.019531 2.050781 -5.367188 1.84375 -4.546875 L 7.609375 -4.546875 C 7.617188 -4.617188 7.625 -4.71875 7.625 -4.84375 C 7.625 -5.601562 7.394531 -6.1875 6.9375 -6.59375 C 6.476562 -7.007812 5.863281 -7.21875 5.09375 -7.21875 Z M 5.09375 -7.21875 "/></g></g></g><g fill="#ffffff" fill-opacity="1"><g transform="translate(217.081238, 50.673209)"><g><path d="M 3 -11.40625 L 4.09375 -11.40625 L 1.8125 0 L 0.71875 0 Z M 3 -11.40625 "/></g></g></g><g fill="#ffffff" fill-opacity="1"><g transform="translate(225.828554, 50.673209)"><g><path d="M 4.328125 0.078125 C 3.585938 0.078125 2.9375 -0.0625 2.375 -0.34375 C 1.820312 -0.625 1.394531 -1.023438 1.09375 -1.546875 C 0.789062 -2.066406 0.640625 -2.671875 0.640625 -3.359375 C 0.640625 -4.265625 0.835938 -5.082031 1.234375 -5.8125 C 1.640625 -6.539062 2.195312 -7.113281 2.90625 -7.53125 C 3.625 -7.945312 4.425781 -8.15625 5.3125 -8.15625 C 6.445312 -8.15625 7.34375 -7.84375 8 -7.21875 C 8.664062 -6.601562 9 -5.773438 9 -4.734375 C 9 -3.816406 8.796875 -2.992188 8.390625 -2.265625 C 7.992188 -1.535156 7.4375 -0.960938 6.71875 -0.546875 C 6.007812 -0.128906 5.210938 0.078125 4.328125 0.078125 Z M 4.390625 -0.890625 C 5.054688 -0.890625 5.65625 -1.050781 6.1875 -1.375 C 6.726562 -1.695312 7.148438 -2.144531 7.453125 -2.71875 C 7.753906 -3.300781 7.90625 -3.953125 7.90625 -4.671875 C 7.90625 -5.460938 7.671875 -6.082031 7.203125 -6.53125 C 6.734375 -6.976562 6.082031 -7.203125 5.25 -7.203125 C 4.582031 -7.203125 3.976562 -7.035156 3.4375 -6.703125 C 2.90625 -6.378906 2.488281 -5.925781 2.1875 -5.34375 C 1.882812 -4.757812 1.734375 -4.109375 1.734375 -3.390625 C 1.734375 -2.609375 1.96875 -1.992188 2.4375 -1.546875 C 2.90625 -1.109375 3.554688 -0.890625 4.390625 -0.890625 Z M 4.390625 -0.890625 "/></g></g></g><g fill="#ffffff" fill-opacity="1"><g transform="translate(240.077746, 50.673209)"><g><path d="M 6.25 -8.15625 C 6.9375 -8.15625 7.550781 -8.015625 8.09375 -7.734375 C 8.632812 -7.453125 9.050781 -7.054688 9.34375 -6.546875 C 9.644531 -6.035156 9.796875 -5.429688 9.796875 -4.734375 C 9.796875 -3.816406 9.597656 -2.992188 9.203125 -2.265625 C 8.804688 -1.535156 8.257812 -0.960938 7.5625 -0.546875 C 6.863281 -0.128906 6.082031 0.078125 5.21875 0.078125 C 4.445312 0.078125 3.796875 -0.0703125 3.265625 -0.375 C 2.742188 -0.675781 2.367188 -1.113281 2.140625 -1.6875 L 1.21875 2.984375 L 0.125 2.984375 L 2.328125 -8.09375 L 3.359375 -8.09375 L 3.109375 -6.796875 C 3.492188 -7.234375 3.953125 -7.566406 4.484375 -7.796875 C 5.015625 -8.035156 5.601562 -8.15625 6.25 -8.15625 Z M 5.203125 -0.890625 C 5.867188 -0.890625 6.460938 -1.050781 6.984375 -1.375 C 7.515625 -1.695312 7.929688 -2.144531 8.234375 -2.71875 C 8.535156 -3.289062 8.6875 -3.941406 8.6875 -4.671875 C 8.6875 -5.460938 8.453125 -6.082031 7.984375 -6.53125 C 7.515625 -6.976562 6.863281 -7.203125 6.03125 -7.203125 C 5.363281 -7.203125 4.765625 -7.039062 4.234375 -6.71875 C 3.703125 -6.394531 3.285156 -5.941406 2.984375 -5.359375 C 2.679688 -4.773438 2.53125 -4.117188 2.53125 -3.390625 C 2.53125 -2.609375 2.765625 -1.992188 3.234375 -1.546875 C 3.703125 -1.109375 4.359375 -0.890625 5.203125 -0.890625 Z M 5.203125 -0.890625 "/></g></g></g><g fill="#ffffff" fill-opacity="1"><g transform="translate(255.110736, 50.673209)"><g><path d="M 1.734375 -3.734375 C 1.722656 -3.660156 1.71875 -3.550781 1.71875 -3.40625 C 1.71875 -2.59375 1.953125 -1.96875 2.421875 -1.53125 C 2.890625 -1.101562 3.582031 -0.890625 4.5 -0.890625 C 5.03125 -0.890625 5.53125 -0.976562 6 -1.15625 C 6.46875 -1.34375 6.851562 -1.59375 7.15625 -1.90625 L 7.640625 -1.125 C 7.265625 -0.738281 6.789062 -0.441406 6.21875 -0.234375 C 5.644531 -0.0234375 5.039062 0.078125 4.40625 0.078125 C 3.238281 0.078125 2.316406 -0.226562 1.640625 -0.84375 C 0.972656 -1.457031 0.640625 -2.296875 0.640625 -3.359375 C 0.640625 -4.265625 0.832031 -5.082031 1.21875 -5.8125 C 1.601562 -6.539062 2.132812 -7.113281 2.8125 -7.53125 C 3.5 -7.945312 4.269531 -8.15625 5.125 -8.15625 C 6.195312 -8.15625 7.050781 -7.847656 7.6875 -7.234375 C 8.320312 -6.617188 8.640625 -5.78125 8.640625 -4.71875 C 8.640625 -4.425781 8.601562 -4.097656 8.53125 -3.734375 Z M 5.09375 -7.21875 C 4.28125 -7.21875 3.585938 -6.976562 3.015625 -6.5 C 2.441406 -6.019531 2.050781 -5.367188 1.84375 -4.546875 L 7.609375 -4.546875 C 7.617188 -4.617188 7.625 -4.71875 7.625 -4.84375 C 7.625 -5.601562 7.394531 -6.1875 6.9375 -6.59375 C 6.476562 -7.007812 5.863281 -7.21875 5.09375 -7.21875 Z M 5.09375 -7.21875 "/></g></g></g><g fill="#ffffff" fill-opacity="1"><g transform="translate(269.006459, 50.673209)"><g><path d="M 3.09375 -6.609375 C 3.445312 -7.128906 3.894531 -7.515625 4.4375 -7.765625 C 4.988281 -8.023438 5.644531 -8.15625 6.40625 -8.15625 L 6.21875 -7.09375 L 5.90625 -7.109375 C 5.03125 -7.109375 4.3125 -6.851562 3.75 -6.34375 C 3.195312 -5.84375 2.820312 -5.097656 2.625 -4.109375 L 1.8125 0 L 0.71875 0 L 2.328125 -8.09375 L 3.359375 -8.09375 Z M 3.09375 -6.609375 "/></g></g></g><g fill="#ffffff" fill-opacity="1"><g transform="translate(279.782402, 50.673209)"><g><path d="M 6.40625 -12.953125 L 7.46875 -12.953125 L -0.46875 1.53125 L -1.515625 1.53125 Z M 6.40625 -12.953125 "/></g></g></g><g fill="#ffffff" fill-opacity="1"><g transform="translate(289.544024, 50.673209)"><g><path d="M 8.140625 -5.890625 L 7.9375 -4.875 L 0.71875 -2.203125 L 0.9375 -3.21875 L 7.015625 -5.421875 L 1.8125 -7.65625 L 2 -8.578125 Z M 8.140625 -5.890625 "/></g></g></g></svg>